<?xml version="1.0" encoding="utf-8"?><svg xmlns="http://www.w3.org/2000/svg" xmlns:xlink="http://www.w3.org/1999/xlink"><symbol viewBox="0 0 32 32" id="arrow-down"><path d="M.335 11.256c.283-.301.469-1.354 1.031-.796C6.278 13.82 11.104 17.314 16 20.7c4.897-3.386 9.726-6.88 14.638-10.24.562-.566.737.506 1.034.793-5.154 3.509-10.18 7.193-15.33 10.701h-.681c-5.15-3.505-10.18-7.193-15.326-10.698z"/></symbol><symbol viewBox="0 0 19 32" id="arrow-left--slim"><path d="M16.329 30.974h-1.274c-.354-.439-.983-.663-1.382-1.062-1.357-1.355-2.569-2.786-4.036-4.036-.07-.143-.141-.284-.213-.425-.585-.585-1.173-1.047-1.698-1.7a74.421 74.421 0 0 0-.531-.318 54.324 54.324 0 0 0-1.807-2.018l-.531-.32c-.956-1.107-1.986-2.112-2.974-3.187-.29-.316-.794-.521-1.062-.849-.226-.277-.282-.606-.531-.849-.015-.433-.068-1.122.107-1.382.384-1.178 3.26-3.605 4.25-4.461.358-.311.593-.858.956-1.169 1.171-1.005 2.308-2.103 3.292-3.292.307-.371.858-.595 1.169-.956 1.54-1.783 3.351-3.215 4.994-4.887 1.297-.053 2.274.23 2.443 1.276 1.011 1.457-1.766 3.462-2.443 4.143a12121.53 12121.53 0 0 0-7.119 7.223c-.659.659-2.564 2.059-2.761 2.974 1.207.789 2.172 2.172 3.185 3.187 1.798 1.796 3.767 3.477 5.419 5.417.915 1.073 3.123 2.556 3.718 3.718.855 1.677-.525 2.225-1.169 2.974z"/></symbol><symbol viewBox="0 0 32 32" id="arrow-right"><path d="M9.867 0L6.134 3.733 18.401 16 6.134 28.267 9.867 32l16-16z"/></symbol><symbol viewBox="0 0 19 32" id="arrow-right--slim"><path d="M2.88 30.974h1.259c.363-.439.981-.663 1.387-1.062 1.365-1.355 2.56-2.786 4.032-4.036.085-.143.149-.284.213-.425.597-.585 1.173-1.047 1.707-1.7.171-.107.341-.213.533-.318a62.218 62.218 0 0 1 1.792-2.018c.192-.107.363-.213.533-.32.96-1.107 1.984-2.112 2.987-3.187.277-.316.789-.521 1.067-.849.213-.277.277-.606.512-.849.021-.433.085-1.122-.107-1.382-.384-1.178-3.243-3.605-4.245-4.461-.363-.311-.597-.858-.96-1.169-1.152-1.005-2.304-2.103-3.285-3.292-.299-.371-.853-.595-1.173-.956C7.596 3.167 5.783 1.735 4.14.063 2.86.01 1.879.293 1.708 1.339.684 2.796 3.479 4.801 4.14 5.482c2.389 2.406 4.757 4.815 7.125 7.223.661.659 2.56 2.059 2.752 2.974-1.195.789-2.155 2.172-3.179 3.187-1.792 1.796-3.755 3.477-5.419 5.417-.917 1.073-3.115 2.556-3.712 3.718-.853 1.677.512 2.225 1.173 2.974z"/></symbol><symbol viewBox="0 0 32 32" id="caret-down"><path d="M9.333 12.667L16 19.334l6.667-6.667z"/></symbol><symbol viewBox="0 0 28 32" id="check"><path d="M0 19.168L8.913 32s6.658-17.772 19.221-32c-8.859 4.456-20.51 24.483-20.51 24.483z"/></symbol><symbol viewBox="0 0 32 32" id="close"><path d="M32 1.883L30.145.032 16 14.15 1.855.032 0 1.883l14.145 14.118L0 30.118l1.855 1.851L16 17.852l14.145 14.117L32 30.118 17.854 16.001z"/></symbol><symbol viewBox="0 0 32 32" id="email"><path d="M16.141 16.458c.208.211.454.32.717.32.272 0 .528-.122.742-.346l6.426-6.429a.817.817 0 0 0-.288-.058H9.965a.874.874 0 0 0-.288.058l6.464 6.454c-.003 0-.003 0 0 0z"/><path d="M18.109 17.344c-.358.368-.803.573-1.254.573-.445 0-.864-.186-1.216-.534 0 0-.013-.006-.016-.01l-6.627-6.621a1.818 1.818 0 0 0-.106.598l.01 9.117c0 .314.08.598.211.832l4.035-4.016c.099-.096.237-.07.31.058a.356.356 0 0 1-.042.41l-3.958 3.946c.154.115.33.186.522.186h13.766c.192 0 .368-.07.525-.186l-3.933-3.942c-.099-.099-.115-.282-.042-.41.077-.131.214-.154.314-.054l4.003 4.013c.131-.234.211-.518.211-.829l-.01-9.117c0-.218-.042-.416-.106-.602l-6.586 6.586c0-.003-.01 0-.013.003z"/><path d="M16 31.68C7.354 31.68.32 24.646.32 16S7.354.32 16 .32 31.68 7.354 31.68 16 24.646 31.68 16 31.68zm0-29.398C8.435 2.282 2.282 8.436 2.282 16S8.436 29.722 16 29.722 29.722 23.565 29.722 16 23.565 2.282 16 2.282z"/></symbol><symbol viewBox="0 0 32 32" id="facebook"><path d="M16 0C7.178 0 0 7.178 0 16s7.178 16 16 16 16-7.178 16-16S24.823 0 16 0zm3.979 16.563h-2.603v9.278h-3.857v-9.278h-1.834v-3.279h1.834v-2.121c0-1.519.722-3.893 3.893-3.893l2.858.011v3.183h-2.075c-.338 0-.818.169-.818.893v1.927h2.939l-.337 3.279z"/></symbol><symbol viewBox="0 0 32 32" id="handshake"><path d="M14.302.599c.268-.001.542.005.805-.052.585-.017 1.171-.004 1.756-.007l.001.033c.248.004.495.024.744.033.172.059.356.038.535.061.254.056.514.082.772.121a.93.93 0 0 0 .323.05l-.002.036c.1.012.201.014.302.025l-.003.036c.07.01.142.016.214.021a.79.79 0 0 0 .235.066c.078.024.159.042.238.064.077.022.156.041.234.061.059.021.121.04.183.056.145.051.29.102.445.118l-.005.032c.108.03.215.068.327.084.082.079.204.078.303.123.058.024.117.045.178.063l.113.059.189.056c.134.079.283.141.435.178l.007.036c.116.03.223.088.333.138.116.061.239.112.355.174.201.09.386.22.592.302.135.096.28.179.433.241l-.002.028c.166.066.293.197.459.264.116.092.242.174.372.243l-.003.027a.797.797 0 0 0 .188.085l-.006.035c.078.042.155.089.225.144.153.124.311.243.471.356l.065.065c.105.048.168.149.264.208.137.096.242.228.38.324l.071.059a18.59 18.59 0 0 1 1.574 1.626l.056.086h.023c.057.1.138.183.208.274.064.081.14.156.183.253l.028-.002c.078.16.204.29.304.436.05.087.107.169.176.242.025.056.053.111.085.165l.028-.006c.078.176.193.337.302.494.046.106.1.21.179.296.061.186.197.337.259.522l.054-.005-.02.112.078.004-.019.113.075.006-.007.086.07.15.04-.005c.026.159.109.301.184.442a.483.483 0 0 0 .112.237c.024.103.039.218.118.296.014.062.032.123.055.183.037.089.071.181.092.276l.032-.002c.012.07.029.139.052.207l.06.16c.022.065.038.132.067.196l.019.157.04-.015c.017.155.051.309.119.45.011.08.019.162.053.238.015.079.028.162.059.238.04.177.059.362.129.531-.001.121.017.242.058.357.009.121.018.242.055.358.015.13.024.259.033.389l.033.002c-.002.197.019.393.027.59l.032.004c.022.457-.01.919.072 1.371l-.051-.013c-.003.352-.009.705-.024 1.058-.05.201-.049.41-.055.616l-.036-.007c-.008.132-.016.265-.031.397-.046.141-.05.292-.053.44l-.038-.004c-.011.09-.012.183-.025.273-.057.175-.09.356-.122.538a2.632 2.632 0 0 0-.061.236.867.867 0 0 0-.054.238c-.065.131-.091.275-.124.416a1.063 1.063 0 0 0-.06.175c-.02.058-.038.117-.055.176a1.721 1.721 0 0 0-.065.187c-.02.058-.038.118-.053.178-.05.095-.085.195-.123.295a2.618 2.618 0 0 0-.059.202l-.03-.001c-.021.095-.062.184-.087.278-.055.068-.083.155-.11.238-.064.137-.141.27-.182.416a.407.407 0 0 0-.114.257l-.062.003.011.095c-.096.065-.101.19-.17.274a9.002 9.002 0 0 1-.48.825c-.047.119-.144.21-.195.327a.805.805 0 0 0-.121.179c-.043.057-.096.107-.116.179-.187.23-.352.479-.535.713l-.538.651c-.159.178-.326.348-.482.53-.084.074-.177.144-.231.244-.305.249-.561.552-.875.791-.265.252-.57.459-.848.697a1.77 1.77 0 0 0-.222.151l.006.029c-.213.085-.382.258-.582.373-.157.098-.311.207-.475.299-.224.138-.454.267-.683.398-.106.058-.226.094-.306.188l-.093-.015.006.063c-.09.028-.224.013-.254.127-.159 0-.276.119-.419.168-.087.027-.17.067-.246.116a1.119 1.119 0 0 0-.299.124 1.116 1.116 0 0 0-.295.12c-.165.038-.319.109-.476.17a3.862 3.862 0 0 0-.183.056 3.372 3.372 0 0 1-.178.059c-.059.02-.117.042-.175.064a.646.646 0 0 0-.178.055l-.237.057a1.315 1.315 0 0 0-.184.07l-.21.021.003.043a9.49 9.49 0 0 0-.242.018l.004.034a2.767 2.767 0 0 0-.562.117c-.219.032-.439.064-.653.119-.128.012-.256.025-.386.033l-.004.034c-.158-.001-.315.015-.473.024v.035c-.238-.001-.475.019-.712.028l-.004.033c-.684.004-1.37.021-2.053-.007-.233-.054-.475-.038-.711-.06-.156-.046-.319-.043-.479-.057-.135-.04-.276-.048-.415-.061-.114-.038-.234-.047-.353-.062a1.28 1.28 0 0 0-.306-.056c-.095-.032-.194-.047-.29-.065-.078-.025-.159-.039-.238-.057-.079-.027-.161-.039-.241-.059-.081-.019-.159-.046-.239-.063a1.001 1.001 0 0 0-.259-.052l.003-.039-.159-.015a1.352 1.352 0 0 0-.441-.125l.015-.042-.2-.011.014-.042c-.096-.017-.186-.055-.277-.084a4.755 4.755 0 0 0-.176-.065 3.429 3.429 0 0 1-.179-.062l-.117-.052c-.101-.038-.197-.088-.299-.122l-.121-.049a1.989 1.989 0 0 0-.292-.128 12.896 12.896 0 0 0-.123-.058l-.596-.29c-.118-.062-.229-.137-.352-.187a.626.626 0 0 1-.153-.093c-.049-.03-.1-.057-.153-.08l-.113-.06a1.349 1.349 0 0 0-.314-.181l.001-.025c-.308-.161-.582-.387-.877-.563a4.777 4.777 0 0 0-.489-.361l-.002-.025a12.509 12.509 0 0 1-1.167-.988l-.082-.058.006-.045-.064.008.001-.043a1.81 1.81 0 0 1-.25-.245c-.058-.047-.107-.105-.168-.147l.003-.043-.039.001c-.019-.021-.059-.061-.079-.081l-.001-.038-.042.001-.062-.087c-.121-.158-.281-.281-.389-.45l-.024.003-.058-.082a3.858 3.858 0 0 0-.244-.295 22.2 22.2 0 0 1-.832-1.125 2.614 2.614 0 0 0-.242-.364c-.1-.205-.226-.4-.348-.593l-.056-.117c-.109-.213-.247-.412-.321-.641l-.043.017c-.027-.239-.214-.421-.259-.658l-.031-.004a1.14 1.14 0 0 0-.125-.319 1.27 1.27 0 0 0-.118-.297 1.453 1.453 0 0 0-.113-.305 2.541 2.541 0 0 0-.055-.175 2.25 2.25 0 0 1-.059-.181 1.18 1.18 0 0 1-.061-.179 1.343 1.343 0 0 0-.064-.174c-.034-.139-.059-.283-.118-.414a4.436 4.436 0 0 0-.057-.234c-.023-.081-.034-.165-.062-.244a4.87 4.87 0 0 0-.121-.535c-.014-.09-.017-.18-.028-.269l-.034-.001c-.003-.261-.088-.513-.09-.774l-.036.006c.001-.199-.014-.398-.025-.598l-.032.001c-.001-.396-.035-.791-.025-1.187l-.034-.002.001-.298.032-.003c-.01-.439.042-.877.024-1.315l.042.024c.01-.165.02-.33.018-.495l.038.009c.011-.111.017-.223.03-.334.04-.116.046-.239.056-.359A.965.965 0 0 0 .301 13l.042.005.022-.217a.682.682 0 0 0 .058-.321l.037.002c.031-.213.1-.418.153-.626.021-.061.039-.123.053-.185.081-.238.155-.479.242-.715l.058-.176c.078-.198.167-.392.233-.594.069-.141.153-.281.179-.439l.056-.007c-.003-.022-.01-.065-.012-.087.137-.176.202-.401.312-.597.033-.059.071-.116.112-.17a2.411 2.411 0 0 1-.015-.09l.055.012a1.5 1.5 0 0 0 .075-.181c.078-.071.105-.178.164-.262.067-.093.1-.209.186-.286.026-.05.05-.1.072-.151.088-.112.165-.235.238-.358a.554.554 0 0 0 .119-.18c.072-.069.123-.155.178-.238.032-.064.093-.107.122-.172.252-.322.509-.64.773-.95.227-.268.483-.509.717-.77.543-.52 1.094-1.026 1.704-1.466l-.008-.025c.235-.109.42-.309.649-.431.155-.128.345-.216.502-.343l.112-.058c.199-.125.403-.242.609-.355.211-.109.41-.238.633-.321l-.014-.04c.244-.045.455-.194.68-.293.138-.032.255-.119.396-.145l-.001-.03c.111-.023.22-.061.319-.118l.181-.061c.158-.064.327-.099.475-.185l.149-.011.002-.05.188-.011-.008-.043c.087-.011.174-.025.259-.048.061-.025.123-.046.187-.064.075-.02.153-.036.227-.064.082-.012.16-.04.242-.057.079-.02.156-.046.237-.061.081-.017.164-.03.242-.061.089-.015.181-.02.271-.035l-.001-.033a.835.835 0 0 0 .321-.051c.12-.013.244-.017.358-.062.139-.012.284-.007.418-.057.151-.013.302-.022.453-.029L14.302.6zm.097 1.218c-.149.009-.298.018-.447.03l-.001.033c-.14.005-.28.018-.42.027l.005.035a1.12 1.12 0 0 0-.39.056c-.098.013-.197.02-.29.055-.18.03-.359.071-.535.12-.14.035-.283.062-.418.117-.077.02-.156.028-.229.058a1.179 1.179 0 0 0-.185.061c-.175.032-.335.114-.508.151l.002.027a2.975 2.975 0 0 0-.212.051 1.875 1.875 0 0 1-.166.07c-.135.039-.257.116-.397.141l.006.036a2.029 2.029 0 0 0-.296.092l-.008.032c-.155.032-.292.113-.432.181-.254.113-.496.245-.742.375-.068.062-.157.091-.241.125l-.011.034a1.002 1.002 0 0 0-.318.18c-.23.114-.437.272-.652.411-.14.098-.288.185-.417.299-.092.043-.162.118-.242.175-.386.28-.743.605-1.096.916l-.054.06c-.071.025-.102.102-.16.144a.777.777 0 0 0-.114.122c-.115.08-.201.19-.295.293l-.056.087-.052-.007.007.065-.043-.002c-.137.183-.312.329-.446.514-.099.119-.209.23-.293.361-.066.072-.139.144-.178.235a8.414 8.414 0 0 0-.777 1.13 4.243 4.243 0 0 0-.35.592c-.088.127-.139.274-.226.402-.041.067-.056.145-.08.219l-.055.001.008.085-.076.119c-.04.081-.087.16-.107.249a1.479 1.479 0 0 0-.128.294c-.055.09-.09.192-.119.294a1.96 1.96 0 0 0-.117.298 7.679 7.679 0 0 1-.066.175 1.777 1.777 0 0 0-.052.203l-.036.001-.021.151a1.905 1.905 0 0 0-.061.18 4.697 4.697 0 0 0-.123.42c-.021.077-.045.153-.058.231-.02.079-.042.158-.06.238-.1.46-.218.924-.23 1.396l-.033-.001c-.012.178-.026.355-.025.533h-.034c-.033 1.015-.078 2.043.088 3.048.01.132.018.263.029.395l.038-.001c-.002.128.014.255.05.379.018.1.028.201.061.298.021.162.059.322.118.474.018.163.059.324.125.475l.016.157.04-.005c.076.421.253.819.412 1.215a.95.95 0 0 0 .137.3 3.555 3.555 0 0 0-.006.103l.056-.02c.006.165.117.296.175.444.036.081.075.162.119.239.094.181.175.373.299.538.071.21.234.372.317.577l.03-.004c.116.259.308.472.453.715h.022c.036.081.099.145.144.221.092.077.123.201.219.272.066.107.153.2.233.298.096.138.228.245.325.382.033.064.094.106.147.152.333.376.692.739 1.076 1.062.135.125.268.263.426.364l.002.02c.095.068.178.151.277.212.155.132.315.261.493.36l-.001.025.223.149c.056.043.114.084.176.121.107.087.238.139.34.235.063-.015.128-.024.185.014l-.156.033c.17 0 .261.187.429.184l-.011.041c.141.055.262.147.399.214l.119.05c.185.123.388.22.595.301.055.037.117.066.178.096.167.049.308.164.48.198.089.06.193.091.295.12.094.053.198.087.299.123.058.021.116.039.176.055.109.057.228.095.349.119.059.024.118.046.178.068.062.013.124.032.183.055.077.025.156.037.235.057.06.024.121.043.185.058.159.043.318.084.478.122.095.025.192.04.29.056.097.035.201.042.302.058.132.039.271.049.405.082.102.019.207.02.31.037.389.067.782.11 1.177.116.637.082 1.286.035 1.928.028l-.002-.035c.238.008.474-.012.711-.025l.004-.034c.158 0 .315-.01.473-.024l.001-.035c.148-.002.299-.004.441-.054.117-.014.236-.023.349-.061.185-.025.369-.062.548-.114.08-.015.162-.029.236-.066a6.66 6.66 0 0 1 .209-.024l.003-.035a.787.787 0 0 0 .257-.058.694.694 0 0 0 .181-.053c.141-.034.281-.071.415-.127.122-.029.239-.075.356-.122.102-.028.202-.064.296-.112.092-.028.181-.065.274-.087l.002-.031c.111-.023.217-.067.317-.119.17-.05.316-.153.485-.207.055-.035.113-.067.172-.094l.116-.058c.121-.052.239-.11.352-.179.108-.054.223-.101.306-.193l.085.015.004-.061a.917.917 0 0 0 .324-.177 5.84 5.84 0 0 0 .65-.418c.119-.074.237-.15.347-.237l.074-.061c.066-.025.116-.075.169-.12.23-.164.449-.344.663-.527.139-.102.245-.241.391-.333l.001-.043.06.002-.002-.04.085-.062c.065-.052.132-.103.171-.179.142-.092.244-.23.365-.346.035-.043.073-.082.113-.119l.056-.088.026.004c.245-.293.516-.567.739-.878.065-.073.138-.144.176-.233.268-.316.487-.667.715-1.014.117-.186.221-.378.339-.562.075-.145.152-.289.236-.429.028-.064.056-.127.091-.187l.053-.145.033-.005c.064-.226.216-.416.264-.647l.032-.006c.021-.139.114-.253.142-.39.1-.21.161-.436.244-.653l.054-.181c.049-.135.089-.273.128-.41.032-.085.04-.176.052-.264l.035.006c.025-.235.115-.459.143-.694.027-.096.045-.194.059-.293.032-.117.049-.238.061-.358.05-.163.054-.334.049-.504l.038.002c.018-.219.03-.439.024-.659l.039.015c.027-.665.027-1.332.005-1.997a.944.944 0 0 0-.036-.237c-.011-.199-.012-.4-.061-.595a9.926 9.926 0 0 0-.23-1.303c-.051-.239-.1-.48-.189-.708l-.017-.157-.037.001c-.057-.316-.178-.618-.298-.915-.028-.093-.065-.183-.085-.277l-.039.014a.564.564 0 0 0-.128-.334l.009-.099-.055.016c-.003-.145-.105-.254-.142-.387a1.47 1.47 0 0 0-.101-.177.574.574 0 0 0-.117-.234.661.661 0 0 0-.124-.238 1.283 1.283 0 0 0-.173-.306.842.842 0 0 0-.173-.295 1.076 1.076 0 0 0-.184-.298 4.052 4.052 0 0 1-.079-.163l-.037.01a.786.786 0 0 0-.085-.192l-.037.011c-.014-.078-.046-.156-.119-.195-.07-.157-.21-.265-.285-.418-.084-.098-.162-.201-.245-.299-.227-.31-.504-.574-.743-.873h-.021l-.083-.075.006-.02c-.1-.092-.175-.216-.299-.278l.001-.023c-.021-.02-.062-.059-.082-.08l-.043.006.008-.065-.065.005.007-.045-.081-.062c-.275-.256-.558-.51-.856-.74a6.506 6.506 0 0 0-.539-.412c-.24-.164-.461-.368-.729-.483l.008-.032a1.981 1.981 0 0 0-.167-.082c-.097-.093-.23-.134-.333-.219a1.068 1.068 0 0 0-.153-.072.556.556 0 0 0-.224-.124c-.386-.227-.789-.444-1.212-.591l-.007-.033a1.972 1.972 0 0 0-.295-.092l.013-.032c-.103-.03-.202-.071-.307-.088v-.032a1.593 1.593 0 0 1-.268-.09 3.787 3.787 0 0 1-.178-.065 6.123 6.123 0 0 0-.181-.051 1.264 1.264 0 0 0-.356-.118 1.073 1.073 0 0 0-.183-.064c-.075-.025-.155-.036-.23-.058-.243-.072-.486-.157-.741-.173l.001-.04a5.062 5.062 0 0 1-.213-.011c-.087-.062-.196-.063-.298-.067a1.416 1.416 0 0 0-.353-.064c-.143-.05-.296-.05-.444-.055l-.001-.034c-.157-.011-.314-.023-.471-.024l-.006-.032c-.206-.011-.412-.022-.617-.028-.563-.07-1.13-.038-1.695-.035l.002.036c-.287.002-.579-.011-.86.053z"/><path d="M5.002 8.955l.134.027a.74.74 0 0 0 .208.064l-.004.032c.095.019.184.057.276.082.078.032.158.059.235.093.082.022.157.066.242.081.058.022.116.047.173.074a2 2 0 0 0 .203.049l.011.039a.872.872 0 0 1 .262.084c.059.017.118.038.174.065.068.02.137.037.206.052l.002.033c.092.023.182.053.271.085.059.023.119.043.18.061.094.051.196.087.3.115.058.022.117.043.177.062.155.065.313.119.47.178l.181.061c.155.068.315.124.476.175.216.085.431.178.658.23.085.039.106.116.063.231l-.045-.005a.488.488 0 0 1-.076.235l.166.022c.144.047.295.038.444.029l-.004-.036c.119 0 .239-.012.358-.024l.003-.033c.191-.006.372-.066.556-.113.131-.032.261-.068.394-.093l-.007-.031a.815.815 0 0 0 .267-.059l.155-.02-.005-.039a.765.765 0 0 0 .259-.055c.063-.018.125-.039.187-.062.094-.02.185-.051.275-.084.009.074.02.149.033.224a.73.73 0 0 0-.147.087c-.123.085-.27.165-.387.276-.091.04-.163.111-.238.176-.147.111-.298.225-.413.37l-.044-.001.002.04-.081.079-.022-.002c-.086.116-.187.219-.269.337-.292.351-.437.909-.121 1.293.07.088.15.169.242.235l.111.053c.123.1.284.114.436.122l.005.027.242.007-.01-.038c.167.008.337-.002.499-.047.276-.066.537-.182.805-.264l.006-.039c.149-.011.267-.113.41-.138l.005-.037c.221-.058.408-.197.622-.273.167-.103.363-.152.526-.264.091-.027.181-.059.272-.089l.006-.03c.19-.045.37-.123.555-.182a2.55 2.55 0 0 1 .276-.025l-.001-.04.177.001.004.033c.231-.006.424.128.63.21.095.068.196.13.302.18.239.155.472.32.71.475.073.066.151.127.238.176.155.121.311.242.472.358.186.139.352.309.558.421l-.007.046.05-.007c.09.092.181.189.295.252.099.088.199.177.315.243l-.009.024c.131.067.216.194.344.265.266.25.549.482.83.716l.069.055c.134.121.261.251.405.36l.07.055c.116.102.217.22.344.309.036.05.081.09.137.119l-.001.02.081.065c.186.134.321.331.519.449l-.011.049.056-.016.059.079c.052.045.09.105.145.148l.063.079.046-.006-.002.04.075.083.024-.002c.07.113.153.218.249.311.01.075.067.128.118.181.062.165.167.311.238.475l.014.16.045-.006c-.004.17.035.348-.027.512-.038.065-.07.133-.096.204l-.051-.006.01.065-.062-.001-.002.061-.043-.004a.93.93 0 0 1-.376.251l.015.035c-.071.012-.139.03-.206.053-.121.044-.244.081-.366.12-.12.027-.174.145-.17.261l-.03-.005a2.087 2.087 0 0 1-.028.273 4.51 4.51 0 0 0-.061.207l-.046.004.006.085-.09.114a1.345 1.345 0 0 1-.521.376c-.183.009-.365.014-.548.017-.074.039-.156.084-.167.178l-.039-.007c-.01.131-.018.261-.013.393-.043.098-.09.197-.111.302-.116.114-.209.255-.358.332l.002.047-.107-.013-.003.055c-.131.012-.265.082-.395.032-.096-.003-.192-.012-.286.008a.44.44 0 0 0-.237.304c-.042.276-.09.57-.296.776a2.255 2.255 0 0 0-.126.113c-.236.138-.523.107-.782.07-.078-.022-.155-.047-.235-.059a4.834 4.834 0 0 0-.415-.172c-.087-.047-.163-.119-.269-.122-.008-.075.011-.15.018-.224l.046-.003c.03-.098.062-.195.083-.294l.032-.004a1.83 1.83 0 0 0 .083-.355l.041.003.017-.152c.039-.073.051-.155.067-.233.063-.159.007-.352.11-.493l-.062-.014c0-.131.022-.274-.064-.385l.01-.084-.055-.001c-.052-.178-.223-.271-.353-.386a1.119 1.119 0 0 0-.204-.055l-.002-.03a1.39 1.39 0 0 0-.381.031 4.677 4.677 0 0 1-.669.024c-.096-.096-.158-.215-.236-.324l-.058-.118c-.117-.238-.258-.507-.524-.599-.215-.038-.441-.057-.653.008a5.233 5.233 0 0 1-.485.009l-.135-.068-.005-.045-.066.006.018-.07-.052.011a1.077 1.077 0 0 0-.184-.316c-.024-.106-.109-.185-.138-.287l-.033.008c-.043-.151-.17-.242-.291-.327a1.717 1.717 0 0 0-.886.011 6.22 6.22 0 0 1-.334.016l.009-.04c-.163-.09-.176-.311-.288-.45-.031-.132-.15-.22-.202-.343l-.026.001-.068-.073c-.177-.17-.491-.155-.695-.049l-.068-.002c-.058.061-.127.122-.213.135l.015.032c-.447.283-.758.737-1.063 1.162l-.084.125c-.214-.15-.448-.266-.675-.395-.182-.103-.355-.227-.552-.298l-.001-.03c-.3-.125-.549-.357-.86-.451-.019.088-.036.178-.053.267l-.034-.008c-.032.156-.099.302-.152.452a.89.89 0 0 0-.055.216l-.036-.016c-.022.108-.062.213-.078.322-.064-.012-.13-.02-.193-.033a3.072 3.072 0 0 0-.182-.068c-.154-.071-.315-.121-.473-.179l-.179-.065c-.1-.039-.202-.075-.302-.114a3.294 3.294 0 0 0-.176-.058 2.625 2.625 0 0 0-.298-.116l-.177-.058a1.047 1.047 0 0 0-.386-.12l.009-.035c-.093-.024-.188-.043-.271-.093a4.86 4.86 0 0 0-.208-.052l-.001-.03a1.684 1.684 0 0 1-.27-.092 1.38 1.38 0 0 1-.176-.066 1.554 1.554 0 0 0-.213-.046l.01-.035c-.097-.017-.185-.059-.279-.085a3.91 3.91 0 0 0-.171-.062.751.751 0 0 0-.219-.061l.017-.035a.943.943 0 0 1-.276-.086 1.74 1.74 0 0 0-.184-.052 1.004 1.004 0 0 0-.334-.127c.025-.107.063-.209.096-.314.023-.057.045-.114.066-.172a.77.77 0 0 0 .049-.216l.049.024.008-.198.05.012a.726.726 0 0 1 .086-.274c.019-.06.036-.12.05-.181.059-.089.083-.195.119-.293.025-.069.045-.139.059-.212l.038.014.016-.198.068.011a2.572 2.572 0 0 1-.018-.085c.028-.062.056-.124.082-.186a1.86 1.86 0 0 0 .052-.208l.031.008c.019-.096.061-.185.085-.279l.068-.172a.825.825 0 0 0 .055-.213l.038.009a.846.846 0 0 1 .09-.272c.019-.068.036-.137.051-.206l.032-.004c.018-.093.056-.181.088-.27.019-.059.041-.117.065-.173a.91.91 0 0 0 .053-.213l.04.01a.69.69 0 0 1 .084-.273c.019-.061.036-.123.053-.184.051-.095.09-.197.118-.301.022-.056.045-.111.066-.167.024-.071.043-.142.056-.216l.035.013c.018-.095.048-.187.084-.275.021-.061.04-.122.059-.184.075-.152.127-.314.175-.477.075-.15.118-.312.18-.468.02-.06.042-.119.066-.178.022-.068.042-.138.056-.209l.033.005a.914.914 0 0 1 .087-.271c.02-.069.039-.138.056-.207l.029.002c.015-.097.058-.186.084-.28l.073-.171c.021-.07.037-.141.047-.213l.036.015c.016-.098.05-.191.092-.28a1.52 1.52 0 0 0 .052-.209z"/><path d="M26.861 9.04c.106-.024.207-.067.315-.088a.863.863 0 0 0 .119.389 2.36 2.36 0 0 0 .123.355c.028.103.067.202.113.3l.059.178c.055.16.11.321.181.476.05.161.1.323.175.475l.054.179a.77.77 0 0 1 .085.277l.039-.008a.815.815 0 0 0 .052.211c.026.056.047.114.064.175.038.085.071.171.085.265l.039.002c.01.071.017.144.053.209.02.058.041.116.064.174.055.16.102.323.18.474.017.061.036.122.058.182.06.157.105.32.178.472a9.01 9.01 0 0 0 .235.656c.02.065.046.128.077.19l-.017.081.068-.005.012.19.04-.005c.013.07.032.139.055.207l.067.173c.033.092.068.182.088.277l.028-.005c.014.07.031.138.049.208.052.082.071.179.095.272l.032-.007c.011.071.029.141.054.209.022.057.044.114.064.173.056.161.111.322.183.478l.05.18c.023.047.07.139.092.186.005.143-.175.135-.269.182-.159.057-.321.107-.473.181a2.134 2.134 0 0 0-.178.051c-.084.049-.179.072-.272.099l.002.031a.835.835 0 0 0-.205.053 1.666 1.666 0 0 1-.273.087l.003.038c-.071.011-.14.027-.208.049l-.187.084-.086-.017.014.073-.194.004.015.047a.751.751 0 0 0-.215.052l-.173.067c-.092.03-.184.059-.279.078l.012.045-.19.012.009.042c-.104.018-.203.053-.305.077l.01.042a.92.92 0 0 0-.386.122c-.092.027-.184.06-.279.071l.017.04a1.208 1.208 0 0 0-.221.054 1.483 1.483 0 0 1-.172.065 1.434 1.434 0 0 1-.27.085l-.001.041-.183.017.012-.122-.056.011a1.65 1.65 0 0 0-.251-.567 2.92 2.92 0 0 0 .014-.092l-.058-.003a1.214 1.214 0 0 0-.194-.443l.011-.086-.056-.007-.025-.141a.5.5 0 0 0-.245.125c-.095.045-.17.128-.28.138l.006.047-.222.014a.714.714 0 0 0-.306-.314.405.405 0 0 0-.169-.185 16.927 16.927 0 0 0-.781-.709c-.151-.143-.303-.289-.469-.413-.156-.145-.311-.293-.485-.413-.124-.1-.22-.241-.369-.304l.012-.028c-.167-.074-.256-.252-.422-.329l.002-.027c-.136-.071-.215-.214-.359-.271l.004-.028c-.137-.07-.219-.21-.363-.27l.006-.027c-.518-.412-1.03-.835-1.549-1.247-.577-.439-1.135-.908-1.761-1.275a1.131 1.131 0 0 0-.762-.064c-.1.014-.201.02-.293.062l-.156.021.004.036a.768.768 0 0 0-.212.048 5.317 5.317 0 0 1-.177.064 2.352 2.352 0 0 1-.176.067l-.114.059a3.251 3.251 0 0 0-.529.235c-.256.091-.485.246-.744.328l-.009.035a2.483 2.483 0 0 0-.561.252l-.09-.02.004.06c-.072.012-.144.03-.214.052a2.174 2.174 0 0 1-.623.163l-.001.033c-.111-.004-.222 0-.333-.002-.101-.04-.205-.071-.304-.117a.48.48 0 0 0-.127-.123c-.028-.062-.058-.124-.087-.184a.9.9 0 0 1-.03-.372 1 1 0 0 1 .113-.238l-.004-.061a.32.32 0 0 0 .132-.196l.033.004c.11-.187.284-.319.44-.465l.072-.059c.152-.126.318-.233.47-.358a.357.357 0 0 0 .175-.119c.105-.047.204-.106.293-.179.058-.026.115-.053.171-.082l-.009-.036c.137-.022.253-.114.375-.177.237-.119.468-.249.712-.356l.124-.06c.079-.034.17-.052.233-.116a.748.748 0 0 0 .303-.135l.061.008c.101-.087.247-.088.354-.165a3.09 3.09 0 0 0 .177-.061c.105-.03.207-.071.305-.117.059-.014.118-.033.174-.057.141-.034.28-.077.417-.124.079-.017.158-.037.236-.059a1.64 1.64 0 0 1 .271-.029l-.001-.037.245-.002-.007.039c.092.011.185.011.277.024.137.072.292.096.443.121l-.007.037.151.021c.06.022.121.045.183.065.156.062.313.126.476.171.099.042.197.086.298.122.066.024.133.045.201.062l.004.027c.092.027.18.065.273.088a.714.714 0 0 0 .325.118l-.01.036c.141.023.26.11.398.142.094.053.194.095.298.121a.763.763 0 0 0 .301.115c.074.088.194.084.293.128.09.055.194.078.29.119.06.017.119.038.176.065a.44.44 0 0 0 .293-.007c.137-.025.277-.028.414-.055-.014-.087-.028-.175-.045-.261.117-.067.249-.104.381-.132l-.011-.028c.07-.015.139-.034.209-.055.058-.024.116-.046.175-.068.102-.032.202-.068.298-.116l.184-.059c.088-.036.178-.068.273-.087l-.012-.032c.073-.014.145-.031.217-.05.058-.024.116-.049.173-.075.092-.02.178-.061.27-.083l.003-.03c.067-.014.134-.03.201-.05.083-.049.18-.068.273-.092v-.037c.07-.01.137-.026.204-.048.055-.025.111-.047.171-.064.086-.039.175-.07.268-.091a.414.414 0 0 1 .01-.033c.07-.013.138-.03.207-.05a.972.972 0 0 1 .181-.071l.11-.05c.063-.02.125-.04.188-.062.057-.02.113-.04.17-.064.059-.019.119-.04.178-.064.102-.028.202-.067.296-.118zm-16.356 9.376c.182-.016.386-.056.549.049.114.057.191.163.277.254.022.088.084.159.113.245l.045.119c.041.133.102.264.229.336.08-.011.16-.025.239-.042.325-.065.661-.111.984-.002l-.002.027a.784.784 0 0 1 .194.117l.051.062a.863.863 0 0 1 .179.256l.036-.009.065.147-.001.092.047.002c.027.107.09.199.152.29.147.095.332.078.491.025.267-.036.538-.046.806-.01l.008.031c.208.049.322.245.453.396.045.152.163.271.197.426.099.347.499.199.736.105.169-.017.34-.012.51-.008l-.003.042.157.019a.845.845 0 0 0 .181.125c.249.264.205.646.114.966-.02.059-.04.118-.062.177-.021.061-.042.122-.062.185-.122.292-.273.571-.407.858l-.029-.014a2.06 2.06 0 0 0-.087.184h-.032c-.092.167-.249.281-.387.406-.101.042-.205.076-.303.123-.226-.004-.426-.125-.612-.242-.164-.123-.283-.293-.433-.424l.005-.045-.049.009a6.813 6.813 0 0 0-.102-.135l-.061.004c-.188-.109-.422-.039-.628-.063l.003-.035a1.885 1.885 0 0 1-.211-.032 1.105 1.105 0 0 0-.207-.059l.004-.033c-.156-.033-.255-.178-.413-.197l.002-.058-.074-.001.015-.062-.07.015.007-.065-.062.002.008-.043-.076-.065a2.091 2.091 0 0 0-.281-.306c-.171-.088-.368-.076-.553-.071l.022-.038c-.124-.003-.245-.013-.368-.021l-.001-.032c-.074-.013-.144-.039-.216-.055a.32.32 0 0 0-.199-.089l.004-.037c-.08-.052-.161-.104-.242-.154l.01-.05-.068.01.005-.061-.043-.002a2.154 2.154 0 0 0-.436-.453c-.236-.042-.479-.018-.718-.025l.012-.042a3.655 3.655 0 0 0-.257-.018l.015-.065a3.236 3.236 0 0 0-.096.018c-.102-.092-.226-.168-.277-.302l-.033.002a.99.99 0 0 0-.058-.264c.001-.102-.005-.204.001-.306.04-.095.049-.195.062-.295.025-.058.046-.118.062-.179a2.55 2.55 0 0 1 .092-.244c.038-.124.116-.231.167-.35.048-.083.092-.167.15-.244a.375.375 0 0 1 .099-.149c.053-.107.159-.175.202-.287l.036.014.015-.061.063-.012-.016-.04a.79.79 0 0 0 .262-.2l.096.014-.002-.059z"/></symbol><symbol viewBox="0 0 32 32" id="odnoklassniki"><path d="M15.662 0h.678c2.525.065 5.038.71 7.258 1.92a16.042 16.042 0 0 1 6.451 6.425c1.231 2.235 1.886 4.771 1.951 7.318v.678c-.065 2.466-.678 4.92-1.836 7.1a16.064 16.064 0 0 1-4.75 5.494c-2.618 1.922-5.832 2.991-9.076 3.065h-.678c-2.584-.066-5.155-.741-7.414-2.005a16.05 16.05 0 0 1-6.328-6.398c-1.21-2.221-1.856-4.734-1.919-7.26v-.686c.056-1.981.454-3.955 1.222-5.784a16.043 16.043 0 0 1 6.975-7.835C10.466.75 13.058.065 15.662-.001zm-.426 4.922a5.623 5.623 0 0 0-3.691 2.149 5.603 5.603 0 0 0-1.17 3.414 5.581 5.581 0 0 0 1.519 3.864 5.6 5.6 0 0 0 6.915 1.024 5.608 5.608 0 0 0 2.426-2.804c.494-1.233.505-2.641.074-3.893a5.629 5.629 0 0 0-2.731-3.178c-1.016-.54-2.205-.73-3.342-.576zM9.325 17.366c-.059.456.191.888.527 1.178a7.433 7.433 0 0 0 2.121 1.325c.931.382 1.926.57 2.922.682-1.171 1.234-2.41 2.404-3.588 3.632-.352.384-.85.71-.934 1.264-.157.854.617 1.702 1.47 1.686.377-.01.705-.23.962-.489.709-.705 1.413-1.414 2.122-2.119.318-.319.605-.676.964-.951.217-.114.385.123.525.251.834.87 1.696 1.713 2.545 2.568.288.289.587.614 1.005.698.869.19 1.768-.619 1.716-1.498-.015-.392-.263-.724-.53-.99l-3.638-3.638a7.985 7.985 0 0 1-.384-.418 13.963 13.963 0 0 0 1.746-.309c1.312-.314 2.572-.95 3.505-1.938.702-.754.056-2.134-.93-2.215-.48-.047-.932.182-1.309.458-2.414 1.649-5.805 1.631-8.238.028-.418-.286-.905-.562-1.431-.478-.622.091-1.061.679-1.147 1.274z"/><path d="M15.54 7.784c1.23-.23 2.549.497 3.006 1.662.31.766.27 1.672-.135 2.397a2.75 2.75 0 0 1-2.327 1.416c-1.136.049-2.255-.675-2.654-1.743-.466-1.146-.047-2.573.978-3.27.338-.233.725-.4 1.132-.462z"/></symbol><symbol viewBox="0 0 31 32" id="phone"><path d="M0 15.946c0 8.551 6.934 15.489 15.486 15.489s15.485-6.938 15.485-15.489S24.037.463 15.486.463C6.934.463 0 7.394 0 15.946zM15.486 2.397c7.47 0 13.55 6.08 13.55 13.549 0 7.476-6.079 13.556-13.55 13.556s-13.55-6.08-13.55-13.556c0-7.469 6.079-13.549 13.55-13.549zm8.178 20.663l-1.241 1.239c-.221.218-.869.361-.89.361a14.655 14.655 0 0 1-10.475-4.283A14.653 14.653 0 0 1 6.775 9.865s.142-.633.363-.851l1.24-1.239c.454-.456 1.326-.66 1.936-.456l.261.082c.609.204 1.248.878 1.416 1.498l.624 2.294c.168.62-.059 1.505-.512 1.961l-.828.824a8.802 8.802 0 0 0 6.183 6.189l.829-.831c.456-.456 1.34-.681 1.96-.517l2.289.626c.62.17 1.293.81 1.497 1.416l.087.266c.202.606-.002 1.477-.456 1.934z"/></symbol><symbol viewBox="0 0 32 32" id="reverse"><path d="M.67 15.027C1.037 7.702 7.309 1.297 14.654.903c7.625-.793 15.17 5.159 16.157 12.764 1.3 7.212-3.579 14.777-10.591 16.75-5.226 1.693-11.311.113-15.137-3.799C2.51 24.112 1.05 20.646.671 17.107v-2.08zM11.588 3.396c-4.266 1.493-7.745 5.212-8.692 9.665-1.1 4.632.587 9.771 4.212 12.851 3.486 3.173 8.705 4.039 13.124 2.546 6.412-2.113 10.351-9.565 8.385-16.05C26.784 5.31 18.519.877 11.587 3.397z"/><path d="M19.413 8.395c1.293 1.3 2.579 2.599 3.873 3.899a413.106 413.106 0 0 1-3.946 3.879c-.02-.66-.053-1.973-.073-2.633-3.439-.013-6.872-.007-10.305 0-.013-.847-.02-1.686-.027-2.533 3.459-.013 6.925 0 10.385-.007.027-.653.067-1.953.093-2.606zM8.715 19.626c1.3-1.3 2.593-2.606 3.879-3.912l.08 2.619c3.466.007 6.925-.007 10.391 0l-.02 2.533c-3.439 0-6.872-.007-10.305.007-.02.653-.067 1.973-.087 2.633-1.32-1.286-2.626-2.586-3.939-3.879z"/></symbol><symbol viewBox="0 0 32 32" id="rotate-right"><path d="M8.79 3.042a13.976 13.976 0 0 1 7.281-.826 13.976 13.976 0 0 1 10.578 8.01 13.983 13.983 0 0 1 1.207 4.626c1.236-.002 2.472.002 3.708-.002.146.002.292.016.437.037v.103c-.188.25-.429.452-.645.676l-5.704 5.676c-.137.134-.264.284-.435.376-.261.129-.606.087-.809-.129l-6.486-6.452c-.046-.068-.173-.158-.099-.244.116-.043.242-.04.365-.043 1.246.004 2.491 0 3.737.002a8.074 8.074 0 0 0-2.777-4.999 8.017 8.017 0 0 0-4.644-1.882 8.013 8.013 0 0 0-5.046 1.353 8.058 8.058 0 0 0-3.214 4.349 8.072 8.072 0 0 0 .152 5.116 8.067 8.067 0 0 0 3.358 4.084 8.01 8.01 0 0 0 3.748 1.168c.294.004.478.311.452.582-.007 1.603.005 3.207-.006 4.81.012.271-.226.526-.502.505a13.811 13.811 0 0 1-5.051-1.139 13.997 13.997 0 0 1-5.231-3.956C1.174 22.439.05 19.349.002 16.229v-.459c.047-2.549.791-5.085 2.168-7.233a14 14 0 0 1 6.622-5.495z"/></symbol><symbol viewBox="0 0 32 32" id="search"><path d="M7.37 1.6c5.595-2.967 13.159-.33 15.961 5.285 2.065 3.762 1.6 8.417-.32 12.15 2.967 3.016 6.245 5.721 8.989 8.941v1.716c-.601 1.678-2.24 2.531-3.966 2.027-3.219-2.667-5.993-5.828-9.067-8.65-5.799 3.2-13.886 1.387-17.009-4.645-3.607-5.799-.727-14.09 5.411-16.824zm1.726 4.596c-4.431 2.25-5.081 9.038-1.008 11.985 4.034 3.627 11.074.698 11.724-4.567C20.898 7.99 13.994 3.093 9.097 6.196z"/></symbol><symbol viewBox="0 0 31 32" id="sign-in"><path d="M17.837 1.349H30.47v29.508H17.837v-4.032h8.612V5.565h-8.612z"/><path d="M9.586 4.464l11.548 11.455L9.67 27.282l-3.2-3.116 5.565-5.635H.125v-5.152h11.882L6.553 7.58z"/></symbol><symbol viewBox="0 0 31 32" id="sign-out"><path d="M12.772 1.349H.139v29.508h12.633v-4.032H4.16V5.565h8.612z"/><path d="M21.023 4.464L9.475 15.919l11.464 11.364 3.2-3.116-5.565-5.635h11.91V13.38H18.602l5.454-5.799z"/></symbol><symbol viewBox="0 0 32 32" id="twitter"><path d="M16 0C7.178 0 0 7.178 0 16s7.178 16 16 16 16-7.178 16-16S24.823 0 16 0zm7.138 12.338c.007.159.011.318.011.478 0 4.866-3.703 10.476-10.479 10.476-2.08 0-4.016-.608-5.645-1.653a7.394 7.394 0 0 0 5.452-1.524 3.686 3.686 0 0 1-3.44-2.558 3.673 3.673 0 0 0 1.663-.062 3.684 3.684 0 0 1-2.953-3.657 3.672 3.672 0 0 0 1.667.46 3.68 3.68 0 0 1-1.638-3.065c0-.675.181-1.308.498-1.852a10.457 10.457 0 0 0 7.59 3.849 3.684 3.684 0 0 1 6.275-3.36 7.329 7.329 0 0 0 2.339-.894 3.698 3.698 0 0 1-1.622 2.038 7.326 7.326 0 0 0 2.115-.579 7.432 7.432 0 0 1-1.835 1.904z"/></symbol><symbol viewBox="0 0 35 32" id="user"><path d="M.64 30.742l33.193.076s.742-6.098-4.029-8.447c-4.785-2.349-7.418-2.692-8.407-3.373s-.684-2.046-.684-2.046 1.222-1.583 2.095-4.163C24.495 7.807 25.397.131 17.31.131c-8.364 0-7.535 8.242-5.513 13.219.945 2.33 2.051 3.915 2.051 3.915s.349 1.498-1.338 2.25c-1.222.546-4.8 1.178-8.32 3.12C.685 24.576.641 30.743.641 30.743z"/></symbol><symbol viewBox="0 0 32 32" id="vk"><path d="M16 0C7.164 0 0 7.163 0 16s7.164 16 16 16 16-7.163 16-16S24.836 0 16 0zm8.116 17.73c.746.728 1.535 1.414 2.204 2.218.297.356.576.723.789 1.137.304.59.029 1.236-.498 1.271l-3.278-.001c-.847.07-1.52-.271-2.088-.85-.453-.461-.874-.954-1.311-1.431a3.04 3.04 0 0 0-.59-.525c-.447-.291-.835-.202-1.091.265-.261.475-.32 1.001-.345 1.53-.036.773-.269.975-1.044 1.011-1.657.078-3.229-.174-4.691-1.009-1.289-.737-2.287-1.777-3.156-2.954-1.693-2.296-2.99-4.815-4.155-7.407-.262-.584-.07-.896.574-.908 1.07-.021 2.14-.018 3.209-.001.435.007.723.256.891.667.578 1.422 1.287 2.776 2.175 4.031.237.334.478.668.822.904.38.261.669.175.848-.249.115-.269.164-.557.189-.846.085-.989.095-1.978-.052-2.963-.092-.616-.438-1.014-1.053-1.131-.313-.059-.267-.175-.115-.354.264-.309.512-.5 1.006-.5l3.703-.001c.584.115.715.376.794.964l.003 4.116c-.007.228.114.902.523 1.051.327.108.543-.155.739-.362.888-.943 1.521-2.055 2.088-3.206.25-.508.466-1.033.675-1.56.156-.389.398-.581.837-.574l3.566.004c.105 0 .212.001.316.019.601.103.766.361.58.948-.293.921-.861 1.689-1.417 2.458-.596.824-1.231 1.619-1.821 2.446-.542.756-.499 1.137.174 1.794z"/></symbol><symbol viewBox="0 0 32 32" id="zoom"><path d="M31.155 28.707v.71c-.118.029-.061.131-.08.198-.278 1.066-.954 1.728-2.019 1.994-.051.013-.122-.013-.131.074h-.778c-.006-.074-.067-.061-.115-.07a2.716 2.716 0 0 1-1.366-.746c-2.304-2.314-4.618-4.621-6.925-6.928-.234-.234-.237-.237-.534-.083-.995.522-2.038.915-3.136 1.162-.858.195-1.725.278-2.595.31-.416.016-.829-.026-1.242-.064a12.288 12.288 0 0 1-1.674-.259 12.7 12.7 0 0 1-3.363-1.309 12.967 12.967 0 0 1-2.467-1.83 11.796 11.796 0 0 1-1.184-1.312 12.137 12.137 0 0 1-1.994-3.629 11.746 11.746 0 0 1-.64-3.018c-.003-.048-.01-.09-.067-.099V11.85c.07-.01.067-.064.067-.115.006-.381.077-.758.144-1.13.234-1.27.65-2.48 1.258-3.629a12.713 12.713 0 0 1 1.84-2.602 12.02 12.02 0 0 1 1.363-1.277 12.319 12.319 0 0 1 3.117-1.843C9.767.796 10.941.486 12.167.396c.048-.003.09-.01.099-.067h2.23c.074.128.214.086.314.093.608.045 1.197.182 1.779.333 1.027.269 1.997.682 2.922 1.2.96.541 1.824 1.21 2.614 1.971.374.362.717.758 1.04 1.168a12.501 12.501 0 0 1 2.061 3.824c.198.595.352 1.206.451 1.827.106.666.182 1.331.176 2.006-.003.246-.022.493-.026.739a9.775 9.775 0 0 1-.262 1.997 12.177 12.177 0 0 1-2.054 4.579c-.115.157-.09.227.035.352 2.282 2.275 4.56 4.55 6.835 6.832.378.381.618.838.707 1.37.006.035.01.08.067.086zM12.342 4.867c-3.379-.048-6.778 3.555-6.934 7.578-.186 4.781 3.616 8.24 7.718 8.32 2.253.045 4.192-.717 5.802-2.291 1.587-1.549 2.378-3.462 2.381-5.664.003-2.176-.784-4.08-2.333-5.616-1.536-1.52-3.405-2.314-6.634-2.326z"/><path d="M15.837 13.6c-.41 0-.822.006-1.232-.003-.144-.003-.179.045-.179.182.006.778-.006 1.555.006 2.33a.898.898 0 0 1-.342.749c-.701.592-1.654.41-2.138-.253a.75.75 0 0 1-.128-.448c.003-.794-.003-1.587.003-2.381 0-.138-.035-.186-.179-.182-.602.006-1.206-.016-1.808.01-.483.019-.781-.208-1.002-.602-.397-.707-.138-1.453.413-1.875a.717.717 0 0 1 .445-.131c.653 0 1.306-.003 1.958.003.134 0 .173-.042.17-.173-.006-.592.019-1.184-.01-1.773-.026-.541.24-.858.688-1.088.694-.352 1.469-.035 1.811.467.077.112.109.23.109.365-.003.675.003 1.35-.003 2.026 0 .131.035.173.17.173.742-.006 1.488.016 2.23-.01.493-.016.813.198 1.043.602.387.682.154 1.478-.435 1.894a.61.61 0 0 1-.362.112c-.406.006-.819.006-1.229.006z"/></symbol></svg>