<svg viewBox="0 0 296 149" xmlns="http://www.w3.org/2000/svg"><path d="M143.82 12.52c.82-4.18 1.72-8.43 3.88-12.16 1.99 3.8 3.06 7.97 3.95 12.15 2.53.87 5.75 1.6 6.57 4.57 1.71 4.86-2.23 10.08-7.33 10.09 2.39 3.98 5.2 8.63 10.11 9.62 4.83.73 8.83-2.68 11.98-5.87-.86-1.96-2.31-4.48-.36-6.31 2.34-3.02 7.74-.65 7.07 3.13-.17 2.67-3.06 3.41-5.18 3.97.51 4.01.66 8.97 4.43 11.44 4.91 1.97 11.04-.23 13.58-4.91-2.03-2.35-4.34-5.79-1.94-8.74 1.36-2.65 4.65-2.73 6.98-1.34 2.17-2.05 5.08-2.41 7.95-2.13-6.56 13.1-13.3 26.12-19.95 39.17-25.24-.27-50.48-.26-75.72 0-6.58-13.1-13.48-26.05-19.86-39.25 2.76.02 5.66.18 7.83 2.1 2.55-1.37 6-1.05 7.31 1.86 1.97 2.93-.28 6.04-2.19 8.26 2.48 4.66 8.45 6.91 13.38 5.06 3.94-2.35 4.09-7.45 4.57-11.5-2.28-.61-5.29-1.82-4.93-4.73.01-3.6 5.23-5.14 7.25-2.22 1.78 1.93.38 4.37-.74 6.2 3.23 3.26 7.46 6.74 12.4 5.73 4.66-1.23 7.34-5.64 9.66-9.51-5.09-.07-8.99-5.25-7.33-10.12.85-2.94 4.07-3.76 6.63-4.56zM.53 67h295.23v3H.53v-3zm0 79h295.23c0 .75.01 2.25.01 3H.53v-3z" fill="#169f95"/><path d="M29.74 94h2.86v31h-2.86c-.01-10.33-.01-20.67 0-31zm8.48.06c1.74-.67 3.86 1.09 3.35 2.94-.21 1.7-2.76 2.89-3.91 1.4-1.46-1.18-.9-3.44.56-4.34zM48.74 94h2.86v8.99c1.51.01 3.02.01 4.53.02v2.98c-1.51.01-3.02.01-4.53.02V125h-2.86c-.01-6.33-.01-12.66 0-18.99-1.34-.01-2.67-.01-4.01-.02v-2.98c1.34-.01 2.67-.02 4.01-.02-.01-3-.01-5.99 0-8.99zm91.49.23c9.06-2 18.74 5.38 18.88 14.73.85 8.56-6.37 16.85-14.99 17.06-8.82.75-17.23-7.15-16.74-16.05-.11-7.42 5.47-14.5 12.85-15.74m-.89 3.42c-5.96 1.8-9.77 8.28-8.75 14.37.78 6.46 7.09 11.6 13.58 11 7.05-.24 12.91-7.08 12.08-14.1-.3-8.04-9.37-14.14-16.91-11.27zm29.96.61c6.77-6.5 18.67-5.4 24.57 1.77a444 444 0 0 0-2.24 1.89c-4.57-5.06-12.67-6.71-18.45-2.73-7.32 4.44-7.65 16.34-.62 21.22 5.77 4.5 14.34 2.9 19.08-2.35.55.48 1.66 1.44 2.22 1.92-5.52 6.59-15.99 8.09-23.05 3.16-7.95-5.45-8.79-18.52-1.51-24.88zM7.73 95H25v3H10.6v9h14.27v3H10.6v12h14.27v3H7.73V95zm92 0H121v30h-2.86V98h-15.68c.01 9 .01 18 .01 27h-2.74V95zm96.87 0h16.53v3c-2.25 0-4.49 0-6.74.01.01 8.99.01 17.99.01 26.99h-3c.01-9 0-18 0-27h-6.8v-3zm21 0c5.76 0 11.51 0 17.27.01V98H220.6v9h14.14v2.99c-4.72.01-9.43.01-14.14.01v12h14.14v2.99c-5.72.01-11.43.01-17.14.01V95zm19.69 29.98c4.37-10.13 8.63-20.32 13.18-30.38 4.45 10.1 8.75 20.27 13.15 30.4-.83-.01-2.48-.01-3.3-.01-3.29-7.65-6.61-15.29-9.89-22.95-3.3 7.65-6.58 15.29-9.88 22.94h-3.26zM269.74 95h2.86c-.01 4.33 0 8.65 0 12.98 4.33.09 8.94-.43 12.98 1.48 5.19 3.2 4.61 12.53-1.28 14.65-4.7 1.48-9.72.74-14.57.88.01-10 0-19.99.01-29.99m2.86 15.99v11.02c3.36-.08 6.82.34 10.12-.56 4.37-1.26 4.17-8.6-.06-9.94-3.27-.88-6.72-.43-10.06-.52zM37.74 103h2.86v22h-2.86c-.01-7.33-.01-14.67 0-22zm25.1 3.85c4.25-5.17 13.14-5.19 17.42-.04 2.09 2.2 2.55 5.31 3.12 8.16-6.92.1-13.83-.07-20.75.12.86 2.08 1.59 4.54 3.79 5.61 4.36 2.57 9.9 1.22 13.83-1.54.6.33 1.8 1 2.4 1.34-4.49 4.63-12.25 6.25-17.78 2.55-5.2-3.47-6.27-11.57-2.03-16.2m.18 5.05c5.76.15 11.54.18 17.3-.03-1.63-3.62-5.24-6.34-9.35-5.9-3.73-.05-6.4 2.85-7.95 5.93z" fill="#444"/></svg>