<svg id="Слой_1" xmlns="http://www.w3.org/2000/svg" width="80" height="60" viewBox="0 0 80 60"><path d="M35.8,6.3c0.1-2.4,1.5-4.5,2.9-6.3c-0.3,1.1-0.8,2.2-0.8,3.4c0,1.6,0.4,3.3,1.7,4.4 c1.1,1,2.5,1.7,3.8,2.4c3,1.5,6.1,2.9,8.8,4.9c1.7,1.2,3.2,2.7,3.9,4.7c0.7,1.9,0.4,4.1-0.5,6c-0.6,1.2-1.7,2.1-2.9,2.8 c-2.1,1.2-4.5,1.8-6.9,2.2c-3.3,0.5-6.8,0.6-10.1,0.3c-2.6-0.3-5.1-0.8-7.5-1.9c-1.4-0.7-2.8-1.6-3.5-3.1c-0.5-1.2-0.7-2.6-0.3-3.9 c0.3-1.1,1.2-2,2.1-2.6c1.6-1.2,3.4-1.8,5-3c0.7-0.5,1.3-1.2,1.5-2.1c0.1-0.6-0.1-1.3-0.3-1.9c0.7,0.6,1.5,1.4,1.7,2.3 c0.2,0.8,0,1.6-0.5,2.3c-1,1.6-2.6,2.7-3.6,4.2c-0.8,1.2-0.7,2.8-0.3,4.1c0.6,1.7,2.3,2.7,3.9,3.3c3,1,6.3,1,9.4,0.5 c2.1-0.4,4.3-1.1,5.9-2.5c1.4-1.2,2-3.3,1.4-5.1c-0.7-1.8-2.3-3.1-3.8-4.2c-2.9-1.9-6.1-3.3-8.7-5.7C36.8,10.1,35.7,8.3,35.8,6.3z" fill="#fb7009"/><path d="M0,36.3c0.1-1,1.1-1.8,2.1-1.7c24.8,0,49.6,0,74.4,0c0.7,0,1.4-0.1,2,0.1c0.8,0.2,1.3,0.9,1.5,1.6 v22c-0.1,0.9-0.8,1.6-1.7,1.8H1.7c-0.9-0.1-1.7-0.9-1.7-1.9V36.3z M29.7,42.2c-2.3,1.9-2.8,5.3-1.8,8.1c0.6,1.8,2.3,3.2,4.2,3.5 c1.6,0.3,3.3,0.2,4.8-0.4c-0.1-0.5-0.2-0.9-0.3-1.3c-1.8,0.8-4.1,0.8-5.7-0.4c-1.4-1.1-1.9-3-1.7-4.7c0.1-1.5,0.7-3,2-3.8 c1.6-1.1,3.7-1.1,5.4-0.3c0.1-0.4,0.3-0.8,0.4-1.2c-0.4-0.3-0.9-0.5-1.4-0.6C33.6,40.5,31.3,40.9,29.7,42.2z M54.9,40.9 c-1.2,0.3-2.3,0.9-3.1,1.9c-1.1,1.4-1.5,3.4-1.4,5.2c0.1,1.6,0.7,3.3,1.9,4.5c2.3,2.1,6.2,1.8,8.2-0.5c1.2-1.4,1.6-3.3,1.5-5.1 c-0.1-1.8-0.7-3.7-2.1-4.8C58.4,40.9,56.5,40.6,54.9,40.9z M7.9,41c0,1.4,0,2.9,0,4.3c0,1,0.2,2.1,0.9,2.9c0.4,0.5,1.1,0.8,1.7,1 c1.4,0.3,2.9,0,4.1-0.7c0,1.8,0,3.5,0,5.3c0.6,0,1.1,0,1.7,0c0-4.3,0-8.5,0-12.7c-0.6,0-1.1,0-1.7,0c0,2,0,4.1,0,6.1 c-1.2,0.7-2.7,1-4,0.4C9.8,47,9.5,46,9.5,45.1c0-1.4,0-2.8,0-4.1C9,41,8.4,41,7.9,41z M19,41c0,4.3,0,8.5,0,12.7 c2.3,0,4.7,0,7.1,0c0-0.5,0-0.9,0-1.4c-1.8,0-3.6,0-5.4,0c0-1.5,0-3,0-4.5c1.6,0,3.3,0,4.9,0c0-0.5,0-0.9,0-1.4 c-1.6,0-3.3,0-4.9,0c0-1.4,0-2.7,0-4.1c1.7,0,3.4,0,5.1,0c0-0.5,0-0.9,0-1.4C23.5,41,21.3,41,19,41z M39,41c0,4.3,0,8.5,0,12.7 c0.5,0,1.1,0,1.6,0c0-2,0-3.9,0-5.9c2,0,4.1,0,6.1,0c0,2,0,3.9,0,5.9c0.6,0,1.1,0,1.7,0c0-4.2,0-8.5,0-12.7c-0.6,0-1.1,0-1.7,0 c0,1.8,0,3.6,0,5.4c-2,0-4.1,0-6.1,0c0-1.8,0-3.6,0-5.4C40.1,41,39.6,41,39,41z M63.9,41c0,4.3,0,8.5,0,12.7c0.5,0,1.1,0,1.6,0 c0-1.9,0-3.9,0-5.8c1.1,0,2.4,0.1,3.1,1.1c1,1.4,1.2,3.2,2,4.7c0.6,0,1.2,0,1.8,0c-0.8-1.7-1.2-3.5-2.1-5.1 c-0.6-1-1.7-1.6-2.8-1.8c1.6-1.9,3.2-3.9,4.7-5.8c-0.7,0-1.3,0-2,0c-1.4,1.9-2.9,3.8-4.3,5.7c-0.1,0-0.3,0-0.5,0 c0-1.9,0-3.8,0-5.7C65,41,64.4,41,63.9,41z" fill="#fb7009"/><path d="M55.4,42.2c1.4-0.3,3,0.4,3.8,1.6c1.4,2.1,1.4,5.1,0,7.2c-0.8,1.3-2.6,2-4.1,1.5 c-1.1-0.3-2-1.2-2.5-2.2c-0.8-1.8-0.8-3.9,0-5.7C53.1,43.4,54.1,42.4,55.4,42.2z" fill="#fb7009"/><g><path d="M29,42.4c1.6-1.3,3.9-1.6,5.9-1.3c0.5,0.1,1,0.3,1.4,0.6c-0.1,0.4-0.3,0.8-0.4,1.2 c-1.7-0.8-3.8-0.8-5.4,0.3c-1.3,0.8-1.9,2.4-2,3.8c-0.1,1.7,0.3,3.6,1.7,4.7c1.6,1.2,3.9,1.2,5.7,0.4c0.1,0.5,0.2,0.9,0.3,1.3 c-1.5,0.6-3.2,0.7-4.8,0.4c-1.9-0.3-3.6-1.7-4.2-3.5C26.2,47.7,26.7,44.2,29,42.4z" fill="#FFF"/><path d="M54.2,41.1c1.7-0.4,3.6-0.1,4.9,1.1c1.4,1.2,2.1,3.1,2.1,4.8c0.1,1.8-0.3,3.7-1.5,5.1 c-2,2.4-5.9,2.6-8.2,0.5c-1.2-1.2-1.8-2.8-1.9-4.5c-0.1-1.8,0.3-3.7,1.4-5.2C51.8,42,53,41.4,54.2,41.1z M54.7,42.4 c-1.3,0.2-2.3,1.2-2.8,2.4c-0.8,1.8-0.8,3.9,0,5.7c0.5,1,1.4,1.9,2.5,2.2c1.5,0.5,3.2-0.2,4.1-1.5c1.4-2.1,1.4-5.1,0-7.2 C57.7,42.7,56.1,42.1,54.7,42.4z" fill="#FFF"/><path d="M7.2,41.2c0.5,0,1.1,0,1.6,0c0,1.4,0,2.8,0,4.1c0,0.9,0.3,1.9,1.1,2.4c1.3,0.7,2.8,0.3,4-0.4 c0-2,0-4.1,0-6.1c0.6,0,1.1,0,1.7,0c0,4.3,0,8.5,0,12.7c-0.6,0-1.1,0-1.7,0c0-1.8,0-3.5,0-5.3c-1.3,0.7-2.7,0.9-4.1,0.7 c-0.6-0.1-1.3-0.5-1.7-1c-0.7-0.8-0.9-1.8-0.9-2.9C7.2,44,7.2,42.6,7.2,41.2z" fill="#FFF"/><path d="M18.3,41.2c2.3,0,4.5,0,6.8,0c0,0.5,0,0.9,0,1.4c-1.7,0-3.4,0-5.1,0c0,1.4,0,2.7,0,4.1 c1.6,0,3.3,0,4.9,0c0,0.5,0,0.9,0,1.4c-1.6,0-3.3,0-4.9,0c0,1.5,0,3,0,4.5c1.8,0,3.6,0,5.4,0c0,0.5,0,0.9,0,1.4c-2.3,0-4.7,0-7.1,0 C18.3,49.6,18.3,45.4,18.3,41.2z" fill="#FFF"/><path d="M38.3,41.2c0.5,0,1.1,0,1.6,0c0,1.8,0,3.6,0,5.4c2,0,4.1,0,6.1,0c0-1.8,0-3.6,0-5.4 c0.6,0,1.1,0,1.7,0c0,4.3,0,8.5,0,12.7c-0.6,0-1.1,0-1.7,0c0-2,0-3.9,0-5.9c-2,0-4.1,0-6.1,0c0,2,0,3.9,0,5.9c-0.5,0-1.1,0-1.6,0 C38.3,49.6,38.3,45.4,38.3,41.2z" fill="#FFF"/><path d="M63.2,41.2c0.5,0,1.1,0,1.6,0c0,1.9,0,3.8,0,5.7c0.1,0,0.3,0,0.5,0c1.4-1.9,2.9-3.8,4.3-5.7 c0.7,0,1.3,0,2,0c-1.6,2-3.1,3.9-4.7,5.8c1.1,0.2,2.2,0.7,2.8,1.8c1,1.6,1.3,3.5,2.1,5.1c-0.6,0-1.2,0-1.8,0c-0.8-1.5-1-3.3-2-4.7 c-0.7-1-2-1.1-3.1-1.1c0,1.9,0,3.9,0,5.8c-0.5,0-1.1,0-1.6,0C63.2,49.6,63.2,45.4,63.2,41.2z" fill="#FFF"/></g></svg>