<svg id="Layer_1" xmlns="http://www.w3.org/2000/svg" viewBox="0 0 601.7 166.4"><style>.st0{fill:#010101}.st1{fill:#cbcbcb}.st2{fill:url(#SVGID_1_)}.st3{fill:#4ba8d5}.st4{fill:url(#SVGID_2_)}.st5{fill:url(#SVGID_3_)}.st6{fill:url(#SVGID_4_)}.st7{fill:#f57f20}.st8{fill:#f15722}.st9{fill:url(#SVGID_5_)}</style><path class="st0" d="M217.6 80.8v-.2c0-16 11.9-29.2 28.2-29.2 9.4 0 15.2 3.2 20.7 7.9.4.4.8 1 .8 1.7 0 1.1-1 2.1-2.2 2.1-.6 0-1.1-.2-1.5-.6-4.7-4.3-10.1-7.3-18-7.3-13.6 0-23.8 11.1-23.8 25.3v.2c0 14.3 10.4 25.4 23.9 25.4 7.7 0 13.1-2.7 18.4-7.8.3-.3.8-.6 1.5-.6 1 0 2 1 2 2 0 .6-.3 1.1-.6 1.5-5.7 5.3-11.9 8.8-21.4 8.8-16.1-.2-28-13-28-29.2zm77.1-26.6c0-1.1 1-2.1 2.1-2.1s2.1 1 2.1 2.1v52.9c0 1.1-1 2.1-2.1 2.1s-2.1-1-2.1-2.1V54.2zm36.1 0c0-1.1 1-2.1 2.1-2.1s2.1 1 2.1 2.1v35.3l35.7-36.8c.3-.3.8-.6 1.5-.6 1 0 2.1 1 2.1 2.1 0 .6-.2 1-.6 1.5L352 77.3l23 28.2c.4.5.6.9.6 1.5 0 1.1-1 2.2-2.2 2.2-.7 0-1.3-.4-1.6-.8L349 80.3l-14 14.2v12.6c0 1.1-1 2.1-2.1 2.1s-2.1-1-2.1-2.1V54.2zm72.2 0c0-1.1 1-2.1 2.1-2.1s2.1 1 2.1 2.1V105h31.5c1 0 1.9.9 1.9 1.9 0 1-.9 1.9-1.9 1.9h-33.6c-1.1 0-2.1-1-2.1-2.1V54.2zm57.1 31.2V54.2c0-1.1 1-2.1 2.1-2.1s2.1 1 2.1 2.1V85c0 13.3 7.2 21 19.1 21 11.5 0 18.8-6.9 18.8-20.6V54.2c0-1.1 1-2.1 2.1-2.1s2.1 1 2.1 2.1v30.7c0 16.2-9.4 24.8-23.2 24.8-13.5.1-23.1-8.5-23.1-24.3zm75.1-31.1c0-1.1 1-2.1 2.1-2.1h.4c.9 0 1.5.5 2.1 1.2l22 32.4 22-32.4c.5-.7 1.2-1.2 2.1-1.2h.4c1.1 0 2.1 1 2.1 2.1v52.8c0 1.1-1 2.1-2.1 2.1s-2.1-1-2.1-2.1V59.8L563.5 90c-.5.7-1 1-1.8 1-.7 0-1.3-.3-1.8-1l-20.7-30.2v47.4c0 1.1-.9 2-2 2s-2-.9-2-2V54.3z"/><ellipse class="st1" cx="86.4" cy="83.4" rx="78.2" ry="78.2"/><linearGradient id="SVGID_1_" gradientUnits="userSpaceOnUse" x1="6.29" y1="81.541" x2="162.643" y2="81.541"><stop offset="0" stop-color="#f3f3f3"/><stop offset="1" stop-color="#e4e4e4"/></linearGradient><ellipse class="st2" cx="84.5" cy="81.5" rx="78.2" ry="78.2"/><path class="st3" d="M87 116.8c-19.3 1.3-36.1-13.3-37.4-32.5-1.2-16.6 9.5-31.3 24.7-36L70 34.2c-21.7 6.6-36.8 27.6-35.1 51.2 1.9 27.4 25.8 48.2 53.2 46.3 3.8-.3 7.6-1 11.1-2.1l-4.3-14.1c-2.6.6-5.2 1.1-7.9 1.3z"/><linearGradient id="SVGID_2_" gradientUnits="userSpaceOnUse" x1="44.243" y1="51.587" x2="57.578" y2="64.922"><stop offset="0" stop-color="#4ba8d5"/><stop offset="1" stop-color="#033840"/></linearGradient><path class="st4" d="M34.8 85.3c-1.2-16.6 24.2-32.4 39.5-37L70 34.2c-21.8 6.5-36.9 27.5-35.2 51.1"/><linearGradient id="SVGID_3_" gradientUnits="userSpaceOnUse" x1="51.589" y1="86.599" x2="107.621" y2="86.599"><stop offset="0" stop-color="#6a587c"/><stop offset="1" stop-color="#302736"/></linearGradient><path class="st5" d="M61.2 105c12.8 12.8 33.6 12.8 46.4.1l-7.7-7.7c-8.6 8.4-22.4 8.4-30.9-.1s-8.6-22.4-.1-30.9l-7.7-7.7c-12.8 12.7-12.8 33.5 0 46.3z"/><linearGradient id="SVGID_4_" gradientUnits="userSpaceOnUse" x1="50.816" y1="78.026" x2="68.658" y2="84.52"><stop offset="0" stop-color="#6a587c"/><stop offset=".174" stop-color="#5b4b69"/><stop offset=".422" stop-color="#483b52"/><stop offset=".651" stop-color="#3b3043"/><stop offset=".851" stop-color="#33293a"/><stop offset="1" stop-color="#302736"/></linearGradient><path class="st6" d="M61.2 105c-8.5-8.5-.8-30.1 7.6-38.7l-7.7-7.7c-12.7 12.8-12.7 33.6.1 46.4"/><path class="st7" d="M11 81.8c0 18.8 7.2 37.7 21.5 52 28.7 28.7 75.4 28.7 104.1 0l-15.2-15.2c-20.3 20.3-53.3 20.3-73.6 0-10.1-10.1-15.2-23.5-15.2-36.8H11z"/><path class="st8" d="M47.7 45C68 24.8 101 24.8 121.3 45l15.2-15.2c-29-29-74.6-29.4-104.1 0C18.1 44.2 11 63 11 81.8h21.5c0-13.3 5.1-26.6 15.2-36.8z"/><linearGradient id="SVGID_5_" gradientUnits="userSpaceOnUse" x1="93.037" y1="6.385" x2="78.425" y2="46.533"><stop offset="0" stop-color="#f15722"/><stop offset="1" stop-color="#8e3c1e"/></linearGradient><path class="st9" d="M32.5 29.8c20.3-20.3 68.5-5 88.8 15.2l15.2-15.2c-29-29-74.6-29.4-104 0"/><path class="st0" d="M227.5 133.3h-6.2v2.9h5.5v1.7h-5.5v2.9h6.3v1.7h-8.2v-11h8.1v1.8zm12.4 6.6l-3.5-5.1v7.8h-1.9v-11h2.1l3.3 5.2 3.3-5.2h2.1v11h-1.9v-7.9l-3.5 5.2zm17-.9h-2.2v3.5h-1.9v-11h4.3c2.6 0 4.2 1.4 4.2 3.7 0 2.5-2 3.8-4.4 3.8zm.1-5.7h-2.2v3.9h2.2c1.5 0 2.4-.8 2.4-2s-1-1.9-2.4-1.9zm16.2 9.4c-3.4 0-5.7-2.6-5.7-5.7s2.4-5.7 5.8-5.7 5.7 2.6 5.7 5.7c0 3.2-2.4 5.7-5.8 5.7zm0-9.5c-2.2 0-3.7 1.7-3.7 3.9 0 2.1 1.6 3.9 3.7 3.9 2.2 0 3.7-1.7 3.7-3.9s-1.5-3.9-3.7-3.9zm18.8-1.6h1.6l2.7 8.2 2.6-8.1h2l-3.8 11.1h-1.7l-2.7-7.9-2.7 7.9h-1.7l-3.8-11.1h2.1l2.6 8.1 2.8-8.2zm23.7 1.7h-6.2v2.9h5.5v1.7h-5.5v2.9h6.3v1.7h-8.2v-11h8.1v1.8zm14.1 9.3l-2.7-3.8h-2.4v3.8h-1.9v-11h4.9c2.5 0 4.1 1.3 4.1 3.5 0 1.8-1.1 2.9-2.6 3.3l3 4.2h-2.4zm-2.3-9.3h-2.8v3.7h2.8c1.4 0 2.3-.7 2.3-1.8 0-1.2-.9-1.9-2.3-1.9zm13.3-1.7v11h-1.9v-11h1.9zm15.3 0h1.9v11h-1.6l-6-7.8v7.8h-1.9v-11h1.8l5.9 7.6v-7.6zm14.6 11.1c-3.4 0-5.7-2.4-5.7-5.7 0-3.1 2.4-5.7 5.7-5.7 1.9 0 3.1.5 4.2 1.5l-1.2 1.5c-.8-.7-1.7-1.2-3.1-1.2-2 0-3.6 1.8-3.6 3.9 0 2.3 1.5 3.9 3.7 3.9 1 0 2-.3 2.6-.8V138h-2.8v-1.7h4.7v4.6c-1 1.1-2.5 1.8-4.5 1.8zm26.3 0c-3.2 0-5.6-2.5-5.6-5.7 0-3.1 2.3-5.7 5.7-5.7 2 0 3.2.7 4.3 1.7l-1.2 1.4c-.9-.8-1.8-1.4-3.1-1.4-2.1 0-3.6 1.7-3.6 3.9s1.5 3.9 3.6 3.9c1.3 0 2.2-.5 3.2-1.4l1.2 1.3c-1.2 1.3-2.4 2-4.5 2zm16.1 0c-3.4 0-5.7-2.6-5.7-5.7s2.4-5.7 5.8-5.7 5.7 2.6 5.7 5.7c0 3.2-2.4 5.7-5.8 5.7zm0-9.5c-2.2 0-3.7 1.7-3.7 3.9 0 2.1 1.6 3.9 3.7 3.9 2.2 0 3.7-1.7 3.7-3.9s-1.5-3.9-3.7-3.9zm12.8-1.6h1.9v9.2h5.8v1.8h-7.7v-11zm14.4 0h1.9v9.2h5.8v1.8h-7.7v-11zm24.9 11h-2l-1.1-2.6h-5.2l-1.1 2.6h-2l4.8-11.1h1.8l4.8 11.1zm-5.8-8.8l-1.9 4.4h3.8l-1.9-4.4zm20.9.6c0 1.3-.8 2-1.6 2.5 1.3.4 2.2 1.2 2.2 2.7 0 2-1.6 3-4.1 3h-5.1v-11h4.9c2.3 0 3.7 1.1 3.7 2.8zm-2 .3c0-.9-.7-1.4-1.9-1.4h-2.8v2.9h2.6c1.3 0 2.1-.5 2.1-1.5zm.7 4.6c0-.9-.7-1.5-2.3-1.5h-3.1v3h3.2c1.4.1 2.2-.5 2.2-1.5zm14 3.4c-3.4 0-5.7-2.6-5.7-5.7s2.4-5.7 5.8-5.7 5.7 2.6 5.7 5.7c-.1 3.2-2.4 5.7-5.8 5.7zm0-9.5c-2.2 0-3.7 1.7-3.7 3.9 0 2.1 1.6 3.9 3.7 3.9 2.2 0 3.7-1.7 3.7-3.9s-1.5-3.9-3.7-3.9zm19.8 9.4l-2.7-3.8h-2.4v3.8h-1.9v-11h4.9c2.5 0 4.1 1.3 4.1 3.5 0 1.8-1.1 2.9-2.6 3.3l3 4.2h-2.4zm-2.3-9.3h-2.8v3.7h2.8c1.4 0 2.3-.7 2.3-1.8 0-1.2-.9-1.9-2.3-1.9zm21.8 9.3h-2l-1.1-2.6H524l-1.1 2.6h-2l4.8-11.1h1.8l4.8 11.1zm-5.8-8.8l-1.9 4.4h3.8l-1.9-4.4zm15.6 8.8h-1.9v-9.2h-3.5v-1.8h8.9v1.8h-3.5v9.2zm12.2-11v11h-1.9v-11h1.9zm12.9 11.1c-3.4 0-5.7-2.6-5.7-5.7s2.4-5.7 5.8-5.7 5.7 2.6 5.7 5.7c0 3.2-2.4 5.7-5.8 5.7zm0-9.5c-2.2 0-3.7 1.7-3.7 3.9 0 2.1 1.6 3.9 3.7 3.9 2.2 0 3.7-1.7 3.7-3.9s-1.5-3.9-3.7-3.9zm20.4-1.6h1.9v11h-1.6l-6-7.8v7.8H580v-11h1.8l5.9 7.6v-7.6z"/></svg>