<?xml version="1.0" encoding="UTF-8"?><!DOCTYPE svg PUBLIC "-//W3C//DTD SVG 1.1//EN" "http://www.w3.org/Graphics/SVG/1.1/DTD/svg11.dtd"><svg xmlns="http://www.w3.org/2000/svg" xmlns:xlink="http://www.w3.org/1999/xlink" height="346" viewBox="0 0 201 346" width="201"><svg height="150" viewBox="0 0 201 150" width="201" x="0" y="0"><path d="M89.9,15.7c0.3-6,3.7-11.2,7.3-15.7c-0.9,2.7-2.1,5.5-2,8.4c0,4,1.1,8.2,4.2,10.9 c2.8,2.5,6.2,4.3,9.6,6c7.5,3.8,15.3,7.2,22.1,12.1c4.1,3,8,6.8,9.8,11.7c1.8,4.8,1,10.3-1.2,14.9c-1.5,3.1-4.3,5.2-7.2,6.9 c-5.4,2.9-11.4,4.4-17.4,5.4c-8.4,1.3-17,1.5-25.4,0.6c-6.4-0.7-12.9-2-18.8-4.7c-3.5-1.7-7.1-4.1-8.7-7.8 c-1.2-3.1-1.8-6.6-0.7-9.8c0.9-2.7,2.9-4.9,5.3-6.6c4-2.9,8.6-4.6,12.6-7.4c1.8-1.3,3.4-3,3.7-5.2c0.2-1.6-0.3-3.2-0.8-4.8 c1.8,1.6,3.8,3.4,4.4,5.8c0.6,2-0.1,4.1-1.2,5.8c-2.5,3.9-6.4,6.7-9.1,10.5c-2,3-1.9,6.9-0.8,10.2c1.6,4.3,5.7,6.9,9.8,8.3 c7.6,2.6,15.9,2.6,23.7,1.2c5.3-1,10.7-2.6,14.9-6.3c3.4-3,5.1-8.2,3.5-12.6c-1.8-4.6-5.7-7.8-9.7-10.4 c-7.4-4.7-15.4-8.4-21.8-14.3C92.4,25.4,89.6,20.8,89.9,15.7z" fill="#fb7009"/><path d="M0,90.6c0.3-2.6,2.7-4.6,5.3-4.4c62.3,0,124.6,0,186.9,0c1.7,0,3.4-0.1,5.1,0.2 c2,0.4,3.3,2.2,3.7,4.1v55c-0.3,2.3-2,4-4.3,4.4H4.4c-2.3-0.3-4.2-2.3-4.4-4.7V90.6z M74.6,105.4c-5.8,4.7-7.1,13.4-4.6,20.1 c1.6,4.6,5.9,8,10.6,8.9c4,0.7,8.3,0.4,12.1-1.1c-0.3-1.1-0.6-2.2-0.9-3.3c-4.6,1.9-10.3,2-14.4-1.1c-3.6-2.7-4.7-7.6-4.3-11.9 c0.3-3.7,1.8-7.5,5-9.5c4-2.6,9.4-2.7,13.7-0.7c0.3-1,0.7-2,1-2.9c-1.1-0.7-2.2-1.3-3.5-1.5C84.4,101.4,78.7,102.2,74.6,105.4z M137.8,102.3c-3,0.7-5.9,2.4-7.8,4.8c-2.9,3.6-3.9,8.4-3.6,13c0.2,4.1,1.8,8.3,4.8,11.2c5.7,5.2,15.6,4.6,20.5-1.4 c2.9-3.5,3.9-8.3,3.8-12.8c-0.1-4.5-1.8-9.2-5.4-12.1C146.8,102.2,142.1,101.4,137.8,102.3z M19.8,102.4c0,3.6,0,7.2,0,10.8 c0.1,2.5,0.5,5.2,2.3,7.1c1.1,1.3,2.7,2,4.3,2.4c3.5,0.7,7.2,0,10.4-1.7c-0.1,4.4,0,8.8,0,13.2c1.4,0,2.8,0,4.2,0 c0-10.6,0-21.2,0-31.8c-1.4,0-2.8,0-4.2,0c0,5.1,0,10.2,0,15.3c-3,1.7-6.8,2.5-10.1,0.9c-2.1-1.1-2.8-3.7-2.9-5.9 c0-3.4,0-6.9,0-10.3C22.5,102.4,21.2,102.4,19.8,102.4z M47.8,102.4c0,10.6,0,21.2,0,31.8c5.9,0,11.9,0,17.8,0c0-1.1,0-2.3,0-3.4 c-4.5,0-9.1,0-13.7,0c0-3.7,0-7.5,0-11.2c4.1,0,8.2,0,12.3,0c0-1.1,0-2.3,0-3.4c-4.1,0-8.2,0-12.3,0c0-3.4,0-6.9,0-10.3 c4.3,0,8.6,0,12.9,0c0-1.1,0-2.3,0-3.4C59.1,102.4,53.5,102.4,47.8,102.4z M98.1,102.4c0,10.6,0,21.2,0,31.8c1.4,0,2.7,0,4.1,0 c0-4.9,0-9.8,0-14.7c5.1,0,10.3,0,15.4,0c0,4.9,0,9.8,0,14.7c1.4,0,2.8,0,4.2,0c0-10.6,0-21.2,0-31.8c-1.4,0-2.8,0-4.2,0 c0,4.5,0,9,0,13.5c-5.1,0-10.3,0-15.4,0c0-4.5,0-9,0-13.5C100.8,102.4,99.4,102.4,98.1,102.4z M160.5,102.4c0,10.6,0,21.2,0,31.8 c1.4,0,2.7,0,4.1,0c0-4.8,0-9.7,0-14.5c2.8-0.1,6,0.3,7.8,2.6c2.6,3.5,3.1,8,5.1,11.9c1.5,0,3,0,4.5,0c-2.1-4.2-2.9-8.8-5.3-12.8 c-1.4-2.5-4.2-4-7-4.4c4-4.8,8-9.7,11.9-14.6c-1.7,0-3.4,0-5,0c-3.6,4.8-7.2,9.5-10.8,14.2c-0.3,0-0.9,0-1.2,0c0-4.8,0-9.5,0-14.2 C163.2,102.4,161.9,102.4,160.5,102.4z" fill="#fb7009"/><path d="M139.2,105.5c3.6-0.8,7.5,0.9,9.5,3.9c3.4,5.3,3.4,12.6,0,17.9c-2.1,3.3-6.5,4.9-10.2,3.8 c-2.8-0.7-5-3-6.2-5.6c-2-4.4-2-9.7,0-14.2C133.4,108.4,136,106,139.2,105.5z" fill="#fb7009"/><g><path d="M74.1,105.9c4.1-3.3,9.7-4.1,14.7-3.1c1.3,0.2,2.4,0.8,3.5,1.5c-0.3,1-0.7,2-1,2.9 c-4.3-2-9.7-2-13.7,0.7c-3.2,2.1-4.7,5.9-5,9.5c-0.3,4.3,0.8,9.1,4.3,11.9c4.1,3,9.8,2.9,14.4,1.1c0.3,1.1,0.6,2.3,0.9,3.3 c-3.9,1.5-8.1,1.8-12.1,1.1c-4.7-0.8-9-4.3-10.6-8.9C67.1,119.3,68.3,110.6,74.1,105.9z" fill="#FFF"/><path d="M137.3,102.8c4.2-0.9,9-0.1,12.3,2.7c3.6,2.9,5.2,7.6,5.4,12.1c0.2,4.5-0.8,9.3-3.8,12.8 c-4.9,6-14.8,6.6-20.5,1.4c-3-2.9-4.6-7.1-4.8-11.2c-0.3-4.6,0.7-9.4,3.6-13C131.5,105.1,134.3,103.4,137.3,102.8z M138.7,105.9 c-3.2,0.6-5.7,2.9-6.9,5.9c-2,4.5-2,9.7,0,14.2c1.2,2.6,3.4,4.8,6.2,5.6c3.8,1.1,8.1-0.5,10.2-3.8c3.4-5.3,3.4-12.6,0-17.9 C146.2,106.8,142.2,105.2,138.7,105.9z" fill="#FFF"/><path d="M19.3,102.9c1.4,0,2.7,0,4.1,0c0,3.4,0,6.9,0,10.3c0,2.3,0.8,4.8,2.9,5.9c3.2,1.7,7,0.8,10-0.9 c0-5.1,0-10.2,0-15.3c1.4,0,2.8,0,4.2,0c0,10.6,0,21.2,0,31.8c-1.4,0-2.8,0-4.2,0c0-4.4,0-8.8,0-13.2c-3.2,1.7-6.9,2.4-10.4,1.7 c-1.6-0.3-3.2-1.1-4.3-2.4c-1.8-1.9-2.2-4.6-2.3-7.1C19.3,110.1,19.3,106.5,19.3,102.9z" fill="#FFF"/><path d="M47.3,102.9c5.7,0,11.3,0,17,0c0,1.1,0,2.3,0,3.4c-4.3,0-8.6,0-12.9,0c0,3.4,0,6.9,0,10.3 c4.1,0,8.2,0,12.3,0c0,1.1,0,2.3,0,3.4c-4.1,0-8.2,0-12.3,0c0,3.8,0,7.5,0,11.2c4.5,0,9.1,0,13.7,0c0,1.1,0,2.3,0,3.4 c-5.9,0-11.9,0-17.8,0C47.3,124.1,47.3,113.5,47.3,102.9z" fill="#FFF"/><path d="M97.6,102.9c1.4,0,2.7,0,4.1,0c0,4.5,0,9,0,13.5c5.1,0,10.3,0,15.4,0c0-4.5,0-9,0-13.5 c1.4,0,2.8,0,4.2,0c0,10.6,0,21.2,0,31.8c-1.4,0-2.8,0-4.2,0c0-4.9,0-9.8,0-14.7c-5.1,0-10.3,0-15.4,0c0,4.9,0,9.8,0,14.7 c-1.4,0-2.7,0-4.1,0C97.6,124.1,97.6,113.5,97.6,102.9z" fill="#FFF"/><path d="M160,102.9c1.4,0,2.7,0,4.1,0c0,4.8,0,9.5,0,14.2c0.3,0,0.9,0,1.2,0c3.6-4.8,7.2-9.5,10.8-14.2 c1.7,0,3.4,0,5,0c-4,4.9-7.9,9.7-11.9,14.6c2.8,0.4,5.6,1.9,7,4.4c2.4,4,3.2,8.7,5.3,12.8c-1.5,0-3,0-4.5,0 c-2-3.8-2.4-8.4-5.1-11.9c-1.8-2.4-5-2.8-7.8-2.6c0,4.8,0,9.7,0,14.5c-1.4,0-2.7,0-4.1,0C160,124.1,160,113.5,160,102.9z" fill="#FFF"/></g></svg><svg height="100" viewBox="0 0 135 100" width="135" x="0" y="150"><path d="M60.4,10.5c0.2-4,2.5-7.5,4.9-10.5c-0.6,1.8-1.4,3.7-1.4,5.6c0,2.6,0.8,5.5,2.8,7.3 c1.9,1.7,4.2,2.8,6.5,4c5,2.5,10.3,4.8,14.9,8.1c2.8,2,5.4,4.5,6.6,7.8c1.2,3.2,0.7,6.9-0.8,9.9c-1,2.1-2.9,3.5-4.8,4.6 c-3.6,1.9-7.6,2.9-11.7,3.6c-5.6,0.8-11.4,1-17.1,0.4c-4.3-0.5-8.7-1.3-12.6-3.1c-2.4-1.1-4.8-2.7-5.8-5.2 c-0.8-2.1-1.2-4.4-0.5-6.5c0.6-1.8,2-3.3,3.5-4.4c2.7-1.9,5.8-3.1,8.5-5c1.2-0.8,2.3-2,2.5-3.5c0.2-1.1-0.2-2.2-0.6-3.2 c1.2,1.1,2.5,2.3,2.9,3.9c0.4,1.3-0.1,2.7-0.8,3.9c-1.7,2.6-4.3,4.4-6.1,7c-1.4,2-1.2,4.6-0.5,6.8c1,2.8,3.8,4.6,6.6,5.5 c5.1,1.7,10.6,1.7,15.9,0.8c3.6-0.7,7.2-1.8,10-4.2c2.3-2,3.4-5.5,2.3-8.4c-1.2-3.1-3.8-5.2-6.5-7c-4.9-3.1-10.4-5.6-14.6-9.6 C62.1,16.9,60.2,13.8,60.4,10.5z" fill="#fb7009"/><path d="M0,60.4c0.2-1.7,1.8-3.1,3.6-2.9c41.8,0,83.7,0,125.5,0c1.1,0,2.3-0.1,3.4,0.1 c1.3,0.3,2.2,1.5,2.5,2.7v36.7c-0.2,1.5-1.4,2.7-2.9,2.9H2.9c-1.6-0.2-2.9-1.5-2.9-3.1V60.4z M50.1,70.3 c-3.9,3.1-4.8,8.9-3.1,13.4c1.1,3.1,4,5.3,7.1,5.9c2.7,0.5,5.6,0.3,8.2-0.7c-0.2-0.8-0.4-1.5-0.6-2.2C58.7,88,54.9,88,52.1,86 c-2.4-1.8-3.1-5.1-2.9-7.9c0.2-2.4,1.2-5,3.3-6.4c2.7-1.8,6.3-1.8,9.2-0.5c0.2-0.7,0.5-1.3,0.7-2c-0.7-0.5-1.5-0.9-2.4-1 C56.7,67.6,52.9,68.1,50.1,70.3z M92.6,68.2c-2,0.5-3.9,1.6-5.2,3.2c-1.9,2.4-2.6,5.6-2.4,8.7c0.2,2.7,1.2,5.5,3.2,7.4 c3.8,3.5,10.5,3.1,13.8-0.9c2-2.4,2.6-5.5,2.5-8.5c-0.1-3-1.2-6.1-3.6-8.1C98.6,68.1,95.4,67.6,92.6,68.2z M13.3,68.3 c0,2.4,0,4.8,0,7.2c0.1,1.7,0.4,3.5,1.5,4.8c0.8,0.8,1.8,1.3,2.9,1.6c2.4,0.5,4.8,0,7-1.1c-0.1,2.9,0,5.8,0,8.8c1,0,1.9,0,2.8,0 c0-7.1,0-14.1,0-21.2c-1,0-1.9,0-2.8,0c0,3.4,0,6.8,0,10.2c-2,1.1-4.6,1.7-6.8,0.6c-1.4-0.8-1.9-2.4-1.9-3.9c0-2.3,0-4.6,0-6.9 C15.1,68.3,14.2,68.3,13.3,68.3z M32.1,68.3c0,7.1,0,14.1,0,21.2c4,0,8,0,11.9,0c0-0.8,0-1.5,0-2.3c-3,0-6.1,0-9.2,0 c0-2.5,0-5,0-7.5c2.8,0,5.5,0,8.3,0c0-0.8,0-1.5,0-2.3c-2.8,0-5.5,0-8.3,0c0-2.3,0-4.6,0-6.9c2.9,0,5.8,0,8.7,0c0-0.8,0-1.5,0-2.3 C39.7,68.3,35.9,68.3,32.1,68.3z M65.9,68.3c0,7.1,0,14.1,0,21.2c0.9,0,1.8,0,2.8,0c0-3.3,0-6.5,0-9.8c3.4,0,6.9,0,10.4,0 c0,3.3,0,6.5,0,9.8c1,0,1.9,0,2.8,0c0-7.1,0-14.1,0-21.2c-1,0-1.9,0-2.8,0c0,3,0,6,0,9c-3.4,0-6.9,0-10.4,0c0-3,0-6,0-9 C67.7,68.3,66.8,68.3,65.9,68.3z M107.8,68.3c0,7.1,0,14.1,0,21.2c0.9,0,1.8,0,2.8,0c0-3.2,0-6.5,0-9.7c1.9-0.1,4,0.2,5.2,1.8 c1.8,2.3,2.1,5.4,3.4,7.9c1,0,2,0,3,0c-1.4-2.8-2-5.9-3.5-8.6c-1-1.7-2.8-2.7-4.7-2.9c2.7-3.2,5.3-6.5,8-9.7c-1.1,0-2.3,0-3.4,0 c-2.4,3.2-4.8,6.3-7.2,9.5c-0.2,0-0.6,0-0.8,0c0-3.2,0-6.3,0-9.5C109.6,68.3,108.7,68.3,107.8,68.3z" fill="#fb7009"/><path d="M93.5,70.3c2.4-0.5,5,0.6,6.4,2.6c2.3,3.5,2.3,8.4,0,11.9c-1.4,2.2-4.4,3.3-6.9,2.5 c-1.9-0.5-3.4-2-4.2-3.7c-1.3-2.9-1.3-6.5,0-9.4C89.6,72.3,91.4,70.7,93.5,70.3z" fill="#fb7009"/><g><path d="M49.8,70.6c2.8-2.2,6.5-2.7,9.9-2.1c0.9,0.1,1.6,0.5,2.4,1c-0.2,0.7-0.5,1.3-0.7,2 c-2.9-1.3-6.5-1.3-9.2,0.5c-2.1,1.4-3.1,4-3.3,6.4c-0.2,2.9,0.5,6.1,2.9,7.9c2.8,2,6.6,2,9.7,0.7c0.2,0.8,0.4,1.5,0.6,2.2 c-2.6,1-5.4,1.2-8.2,0.7c-3.2-0.6-6.1-2.8-7.1-5.9C45,79.5,45.9,73.7,49.8,70.6z" fill="#FFF"/><path d="M92.2,68.5c2.9-0.6,6-0.1,8.3,1.8c2.4,2,3.5,5.1,3.6,8.1c0.1,3-0.5,6.2-2.5,8.5 c-3.3,4-10,4.4-13.8,0.9c-2-1.9-3.1-4.7-3.2-7.4c-0.2-3,0.5-6.2,2.4-8.7C88.3,70.1,90.2,69,92.2,68.5z M93.1,70.6 c-2.1,0.4-3.8,2-4.7,3.9c-1.3,3-1.3,6.5,0,9.4c0.8,1.7,2.3,3.2,4.2,3.7c2.5,0.8,5.4-0.3,6.9-2.5c2.3-3.5,2.3-8.4,0-11.9 C98.2,71.2,95.5,70.1,93.1,70.6z" fill="#FFF"/><path d="M13,68.6c0.9,0,1.8,0,2.8,0c0,2.3,0,4.6,0,6.9c0,1.5,0.5,3.2,1.9,3.9c2.1,1.1,4.7,0.6,6.8-0.6 c0-3.4,0-6.8,0-10.2c1,0,1.9,0,2.8,0c0,7.1,0,14.1,0,21.2c-1,0-1.9,0-2.8,0c0-2.9,0-5.8,0-8.8c-2.1,1.1-4.6,1.6-7,1.1 c-1.1-0.2-2.2-0.8-2.9-1.6c-1.2-1.3-1.5-3.1-1.5-4.8C13,73.4,13,71,13,68.6z" fill="#FFF"/><path d="M31.8,68.6c3.8,0,7.6,0,11.4,0c0,0.8,0,1.5,0,2.3c-2.9,0-5.8,0-8.7,0c0,2.3,0,4.6,0,6.9 c2.8,0,5.5,0,8.3,0c0,0.8,0,1.5,0,2.3c-2.8,0-5.5,0-8.3,0c0,2.5,0,5,0,7.5c3,0,6.1,0,9.2,0c0,0.8,0,1.5,0,2.3c-4,0-8,0-11.9,0 C31.8,82.7,31.8,75.7,31.8,68.6z" fill="#FFF"/><path d="M65.5,68.6c0.9,0,1.8,0,2.8,0c0,3,0,6,0,9c3.4,0,6.9,0,10.4,0c0-3,0-6,0-9c1,0,1.9,0,2.8,0 c0,7.1,0,14.1,0,21.2c-1,0-1.9,0-2.8,0c0-3.3,0-6.5,0-9.8c-3.4,0-6.9,0-10.4,0c0,3.3,0,6.5,0,9.8c-0.9,0-1.8,0-2.8,0 C65.5,82.7,65.5,75.7,65.5,68.6z" fill="#FFF"/><path d="M107.5,68.6c0.9,0,1.8,0,2.8,0c0,3.2,0,6.3,0,9.5c0.2,0,0.6,0,0.8,0c2.4-3.2,4.8-6.3,7.2-9.5 c1.1,0,2.3,0,3.4,0c-2.7,3.3-5.3,6.5-8,9.7c1.9,0.3,3.7,1.2,4.7,2.9c1.6,2.7,2.1,5.8,3.5,8.6c-1,0-2,0-3,0 c-1.4-2.5-1.6-5.6-3.4-7.9c-1.2-1.6-3.3-1.9-5.2-1.8c0,3.2,0,6.5,0,9.7c-0.9,0-1.8,0-2.8,0C107.5,82.7,107.5,75.7,107.5,68.6z" fill="#FFF"/></g></svg><svg height="60" viewBox="0 0 80 60" width="80" x="0" y="250"><path d="M35.8,6.3c0.1-2.4,1.5-4.5,2.9-6.3c-0.3,1.1-0.8,2.2-0.8,3.4c0,1.6,0.4,3.3,1.7,4.4 c1.1,1,2.5,1.7,3.8,2.4c3,1.5,6.1,2.9,8.8,4.9c1.7,1.2,3.2,2.7,3.9,4.7c0.7,1.9,0.4,4.1-0.5,6c-0.6,1.2-1.7,2.1-2.9,2.8 c-2.1,1.2-4.5,1.8-6.9,2.2c-3.3,0.5-6.8,0.6-10.1,0.3c-2.6-0.3-5.1-0.8-7.5-1.9c-1.4-0.7-2.8-1.6-3.5-3.1c-0.5-1.2-0.7-2.6-0.3-3.9 c0.3-1.1,1.2-2,2.1-2.6c1.6-1.2,3.4-1.8,5-3c0.7-0.5,1.3-1.2,1.5-2.1c0.1-0.6-0.1-1.3-0.3-1.9c0.7,0.6,1.5,1.4,1.7,2.3 c0.2,0.8,0,1.6-0.5,2.3c-1,1.6-2.6,2.7-3.6,4.2c-0.8,1.2-0.7,2.8-0.3,4.1c0.6,1.7,2.3,2.7,3.9,3.3c3,1,6.3,1,9.4,0.5 c2.1-0.4,4.3-1.1,5.9-2.5c1.4-1.2,2-3.3,1.4-5.1c-0.7-1.8-2.3-3.1-3.8-4.2c-2.9-1.9-6.1-3.3-8.7-5.7C36.8,10.1,35.7,8.3,35.8,6.3z" fill="#fb7009"/><path d="M0,36.3c0.1-1,1.1-1.8,2.1-1.7c24.8,0,49.6,0,74.4,0c0.7,0,1.4-0.1,2,0.1c0.8,0.2,1.3,0.9,1.5,1.6 v22c-0.1,0.9-0.8,1.6-1.7,1.8H1.7c-0.9-0.1-1.7-0.9-1.7-1.9V36.3z M29.7,42.2c-2.3,1.9-2.8,5.3-1.8,8.1c0.6,1.8,2.3,3.2,4.2,3.5 c1.6,0.3,3.3,0.2,4.8-0.4c-0.1-0.5-0.2-0.9-0.3-1.3c-1.8,0.8-4.1,0.8-5.7-0.4c-1.4-1.1-1.9-3-1.7-4.7c0.1-1.5,0.7-3,2-3.8 c1.6-1.1,3.7-1.1,5.4-0.3c0.1-0.4,0.3-0.8,0.4-1.2c-0.4-0.3-0.9-0.5-1.4-0.6C33.6,40.5,31.3,40.9,29.7,42.2z M54.9,40.9 c-1.2,0.3-2.3,0.9-3.1,1.9c-1.1,1.4-1.5,3.4-1.4,5.2c0.1,1.6,0.7,3.3,1.9,4.5c2.3,2.1,6.2,1.8,8.2-0.5c1.2-1.4,1.6-3.3,1.5-5.1 c-0.1-1.8-0.7-3.7-2.1-4.8C58.4,40.9,56.5,40.6,54.9,40.9z M7.9,41c0,1.4,0,2.9,0,4.3c0,1,0.2,2.1,0.9,2.9c0.4,0.5,1.1,0.8,1.7,1 c1.4,0.3,2.9,0,4.1-0.7c0,1.8,0,3.5,0,5.3c0.6,0,1.1,0,1.7,0c0-4.3,0-8.5,0-12.7c-0.6,0-1.1,0-1.7,0c0,2,0,4.1,0,6.1 c-1.2,0.7-2.7,1-4,0.4C9.8,47,9.5,46,9.5,45.1c0-1.4,0-2.8,0-4.1C9,41,8.4,41,7.9,41z M19,41c0,4.3,0,8.5,0,12.7 c2.3,0,4.7,0,7.1,0c0-0.5,0-0.9,0-1.4c-1.8,0-3.6,0-5.4,0c0-1.5,0-3,0-4.5c1.6,0,3.3,0,4.9,0c0-0.5,0-0.9,0-1.4 c-1.6,0-3.3,0-4.9,0c0-1.4,0-2.7,0-4.1c1.7,0,3.4,0,5.1,0c0-0.5,0-0.9,0-1.4C23.5,41,21.3,41,19,41z M39,41c0,4.3,0,8.5,0,12.7 c0.5,0,1.1,0,1.6,0c0-2,0-3.9,0-5.9c2,0,4.1,0,6.1,0c0,2,0,3.9,0,5.9c0.6,0,1.1,0,1.7,0c0-4.2,0-8.5,0-12.7c-0.6,0-1.1,0-1.7,0 c0,1.8,0,3.6,0,5.4c-2,0-4.1,0-6.1,0c0-1.8,0-3.6,0-5.4C40.1,41,39.6,41,39,41z M63.9,41c0,4.3,0,8.5,0,12.7c0.5,0,1.1,0,1.6,0 c0-1.9,0-3.9,0-5.8c1.1,0,2.4,0.1,3.1,1.1c1,1.4,1.2,3.2,2,4.7c0.6,0,1.2,0,1.8,0c-0.8-1.7-1.2-3.5-2.1-5.1 c-0.6-1-1.7-1.6-2.8-1.8c1.6-1.9,3.2-3.9,4.7-5.8c-0.7,0-1.3,0-2,0c-1.4,1.9-2.9,3.8-4.3,5.7c-0.1,0-0.3,0-0.5,0 c0-1.9,0-3.8,0-5.7C65,41,64.4,41,63.9,41z" fill="#fb7009"/><path d="M55.4,42.2c1.4-0.3,3,0.4,3.8,1.6c1.4,2.1,1.4,5.1,0,7.2c-0.8,1.3-2.6,2-4.1,1.5 c-1.1-0.3-2-1.2-2.5-2.2c-0.8-1.8-0.8-3.9,0-5.7C53.1,43.4,54.1,42.4,55.4,42.2z" fill="#fb7009"/><g><path d="M29,42.4c1.6-1.3,3.9-1.6,5.9-1.3c0.5,0.1,1,0.3,1.4,0.6c-0.1,0.4-0.3,0.8-0.4,1.2 c-1.7-0.8-3.8-0.8-5.4,0.3c-1.3,0.8-1.9,2.4-2,3.8c-0.1,1.7,0.3,3.6,1.7,4.7c1.6,1.2,3.9,1.2,5.7,0.4c0.1,0.5,0.2,0.9,0.3,1.3 c-1.5,0.6-3.2,0.7-4.8,0.4c-1.9-0.3-3.6-1.7-4.2-3.5C26.2,47.7,26.7,44.2,29,42.4z" fill="#FFF"/><path d="M54.2,41.1c1.7-0.4,3.6-0.1,4.9,1.1c1.4,1.2,2.1,3.1,2.1,4.8c0.1,1.8-0.3,3.7-1.5,5.1 c-2,2.4-5.9,2.6-8.2,0.5c-1.2-1.2-1.8-2.8-1.9-4.5c-0.1-1.8,0.3-3.7,1.4-5.2C51.8,42,53,41.4,54.2,41.1z M54.7,42.4 c-1.3,0.2-2.3,1.2-2.8,2.4c-0.8,1.8-0.8,3.9,0,5.7c0.5,1,1.4,1.9,2.5,2.2c1.5,0.5,3.2-0.2,4.1-1.5c1.4-2.1,1.4-5.1,0-7.2 C57.7,42.7,56.1,42.1,54.7,42.4z" fill="#FFF"/><path d="M7.2,41.2c0.5,0,1.1,0,1.6,0c0,1.4,0,2.8,0,4.1c0,0.9,0.3,1.9,1.1,2.4c1.3,0.7,2.8,0.3,4-0.4 c0-2,0-4.1,0-6.1c0.6,0,1.1,0,1.7,0c0,4.3,0,8.5,0,12.7c-0.6,0-1.1,0-1.7,0c0-1.8,0-3.5,0-5.3c-1.3,0.7-2.7,0.9-4.1,0.7 c-0.6-0.1-1.3-0.5-1.7-1c-0.7-0.8-0.9-1.8-0.9-2.9C7.2,44,7.2,42.6,7.2,41.2z" fill="#FFF"/><path d="M18.3,41.2c2.3,0,4.5,0,6.8,0c0,0.5,0,0.9,0,1.4c-1.7,0-3.4,0-5.1,0c0,1.4,0,2.7,0,4.1 c1.6,0,3.3,0,4.9,0c0,0.5,0,0.9,0,1.4c-1.6,0-3.3,0-4.9,0c0,1.5,0,3,0,4.5c1.8,0,3.6,0,5.4,0c0,0.5,0,0.9,0,1.4c-2.3,0-4.7,0-7.1,0 C18.3,49.6,18.3,45.4,18.3,41.2z" fill="#FFF"/><path d="M38.3,41.2c0.5,0,1.1,0,1.6,0c0,1.8,0,3.6,0,5.4c2,0,4.1,0,6.1,0c0-1.8,0-3.6,0-5.4 c0.6,0,1.1,0,1.7,0c0,4.3,0,8.5,0,12.7c-0.6,0-1.1,0-1.7,0c0-2,0-3.9,0-5.9c-2,0-4.1,0-6.1,0c0,2,0,3.9,0,5.9c-0.5,0-1.1,0-1.6,0 C38.3,49.6,38.3,45.4,38.3,41.2z" fill="#FFF"/><path d="M63.2,41.2c0.5,0,1.1,0,1.6,0c0,1.9,0,3.8,0,5.7c0.1,0,0.3,0,0.5,0c1.4-1.9,2.9-3.8,4.3-5.7 c0.7,0,1.3,0,2,0c-1.6,2-3.1,3.9-4.7,5.8c1.1,0.2,2.2,0.7,2.8,1.8c1,1.6,1.3,3.5,2.1,5.1c-0.6,0-1.2,0-1.8,0c-0.8-1.5-1-3.3-2-4.7 c-0.7-1-2-1.1-3.1-1.1c0,1.9,0,3.9,0,5.8c-0.5,0-1.1,0-1.6,0C63.2,49.6,63.2,45.4,63.2,41.2z" fill="#FFF"/></g></svg><svg height="36" viewBox="0 0 64 36" width="64" x="0" y="310"><path d="M0,18C7.8,7.9,19.4,0,32,0c12.8,0,24.2,7.9,32,18l0,0c-7.8,10.1-19.2,17.8-32,18 C19.4,36,7.8,28.1,0,18L0,18z M5.9,18c7.1,8.1,17.4,14.2,28.1,13.3C43.4,30.6,51.9,25,58.3,18C51.7,10.8,43,5.2,33.1,4.7 C22.6,4.3,12.8,10.4,5.9,18z" fill="#413e3f"/><path d="M26.1,9.9c4.8-3.1,11.7-2,14.2,3.6c3.2,5.9-0.9,14-7.5,14.4c-6.2,0.9-11.4-5.6-10.5-11.7 c1.8,0.9,4.6,1.1,5.5-1.1C29,12.8,27.2,11.5,26.1,9.9z" fill="#413e3f"/></svg></svg>