<?xml version="1.0" encoding="utf-8"?><svg xmlns="http://www.w3.org/2000/svg" xmlns:xlink="http://www.w3.org/1999/xlink"><symbol viewBox="0 0 26 26" id="contact" xmlns="http://www.w3.org/2000/svg"><path clip-rule="evenodd" d="M12.571 3.625c-3.02 0-5.484 2.457-5.484 5.469 0 1.87.955 3.53 2.4 4.516a7.807 7.807 0 00-4.75 7.203h1.566c0-3.489 2.77-6.25 6.268-6.25 3.499 0 6.269 2.761 6.269 6.25h1.567a7.807 7.807 0 00-4.75-7.203 5.472 5.472 0 002.4-4.516c0-3.012-2.465-5.469-5.486-5.469zm0 1.563a3.9 3.9 0 013.918 3.906A3.9 3.9 0 0112.571 13a3.9 3.9 0 01-3.917-3.906 3.9 3.9 0 013.917-3.906z"/></symbol><symbol viewBox="0 0 26 26" id="lock" xmlns="http://www.w3.org/2000/svg"><path clip-rule="evenodd" d="M12.571 2.844c-3.011 0-5.484 2.466-5.484 5.469v2.343h-2.35v12.5h15.67v-12.5h-2.35V8.312c0-3.002-2.474-5.468-5.486-5.468zm0 1.562c2.158 0 3.918 1.755 3.918 3.907v2.343H8.654V8.312c0-2.151 1.76-3.906 3.917-3.906zM6.303 12.22H18.84v9.375H6.303V12.22z"/></symbol></svg>