<?xml version="1.0" encoding="utf-8"?>
<!-- Generator: Adobe Illustrator 19.1.0, SVG Export Plug-In . SVG Version: 6.00 Build 0)  -->
<svg version="1.1" id="Слой_1" xmlns="http://www.w3.org/2000/svg" xmlns:xlink="http://www.w3.org/1999/xlink" x="0px" y="0px"
	 width="64px" height="36px" viewBox="0 0 64 36" style="enable-background:new 0 0 64 36;" xml:space="preserve">
<g>
	<g>
		<path style="fill:#413E3F;" d="M0,18C7.8,7.9,19.4,0,32,0c12.8,0,24.2,7.9,32,18l0,0c-7.8,10.1-19.2,17.8-32,18
			C19.4,36,7.8,28.1,0,18L0,18z M5.9,18c7.1,8.1,17.4,14.2,28.1,13.3C43.4,30.6,51.9,25,58.3,18C51.7,10.8,43,5.2,33.1,4.7
			C22.6,4.3,12.8,10.4,5.9,18z"/>
	</g>
	<path style="fill:#413E3F;" d="M26.1,9.9c4.8-3.1,11.7-2,14.2,3.6c3.2,5.9-0.9,14-7.5,14.4c-6.2,0.9-11.4-5.6-10.5-11.7
		c1.8,0.9,4.6,1.1,5.5-1.1C29,12.8,27.2,11.5,26.1,9.9z"/>
</g>
</svg>
