<?xml version="1.0" encoding="iso-8859-1"?>
<!-- Generator: Adobe Illustrator 19.1.0, SVG Export Plug-In . SVG Version: 6.00 Build 0)  -->
<svg version="1.1" id="&#x421;&#x43B;&#x43E;&#x439;_1"
	 xmlns="http://www.w3.org/2000/svg" xmlns:xlink="http://www.w3.org/1999/xlink" x="0px" y="0px" width="135px" height="100px"
	 viewBox="0 0 135 100" style="enable-background:new 0 0 135 100;" xml:space="preserve">
<g>
	<path style="fill:#FB7009;" d="M60.4,10.5c0.2-4,2.5-7.5,4.9-10.5c-0.6,1.8-1.4,3.7-1.4,5.6c0,2.6,0.8,5.5,2.8,7.3
		c1.9,1.7,4.2,2.8,6.5,4c5,2.5,10.3,4.8,14.9,8.1c2.8,2,5.4,4.5,6.6,7.8c1.2,3.2,0.7,6.9-0.8,9.9c-1,2.1-2.9,3.5-4.8,4.6
		c-3.6,1.9-7.6,2.9-11.7,3.6c-5.6,0.8-11.4,1-17.1,0.4c-4.3-0.5-8.7-1.3-12.6-3.1c-2.4-1.1-4.8-2.7-5.8-5.2
		c-0.8-2.1-1.2-4.4-0.5-6.5c0.6-1.8,2-3.3,3.5-4.4c2.7-1.9,5.8-3.1,8.5-5c1.2-0.8,2.3-2,2.5-3.5c0.2-1.1-0.2-2.2-0.6-3.2
		c1.2,1.1,2.5,2.3,2.9,3.9c0.4,1.3-0.1,2.7-0.8,3.9c-1.7,2.6-4.3,4.4-6.1,7c-1.4,2-1.2,4.6-0.5,6.8c1,2.8,3.8,4.6,6.6,5.5
		c5.1,1.7,10.6,1.7,15.9,0.8c3.6-0.7,7.2-1.8,10-4.2c2.3-2,3.4-5.5,2.3-8.4c-1.2-3.1-3.8-5.2-6.5-7c-4.9-3.1-10.4-5.6-14.6-9.6
		C62.1,16.9,60.2,13.8,60.4,10.5z"/>
	<g>
		<path style="fill:#FB7009;" d="M0,60.4c0.2-1.7,1.8-3.1,3.6-2.9c41.8,0,83.7,0,125.5,0c1.1,0,2.3-0.1,3.4,0.1
			c1.3,0.3,2.2,1.5,2.5,2.7v36.7c-0.2,1.5-1.4,2.7-2.9,2.9H2.9c-1.6-0.2-2.9-1.5-2.9-3.1V60.4z M50.1,70.3
			c-3.9,3.1-4.8,8.9-3.1,13.4c1.1,3.1,4,5.3,7.1,5.9c2.7,0.5,5.6,0.3,8.2-0.7c-0.2-0.8-0.4-1.5-0.6-2.2C58.7,88,54.9,88,52.1,86
			c-2.4-1.8-3.1-5.1-2.9-7.9c0.2-2.4,1.2-5,3.3-6.4c2.7-1.8,6.3-1.8,9.2-0.5c0.2-0.7,0.5-1.3,0.7-2c-0.7-0.5-1.5-0.9-2.4-1
			C56.7,67.6,52.9,68.1,50.1,70.3z M92.6,68.2c-2,0.5-3.9,1.6-5.2,3.2c-1.9,2.4-2.6,5.6-2.4,8.7c0.2,2.7,1.2,5.5,3.2,7.4
			c3.8,3.5,10.5,3.1,13.8-0.9c2-2.4,2.6-5.5,2.5-8.5c-0.1-3-1.2-6.1-3.6-8.1C98.6,68.1,95.4,67.6,92.6,68.2z M13.3,68.3
			c0,2.4,0,4.8,0,7.2c0.1,1.7,0.4,3.5,1.5,4.8c0.8,0.8,1.8,1.3,2.9,1.6c2.4,0.5,4.8,0,7-1.1c-0.1,2.9,0,5.8,0,8.8c1,0,1.9,0,2.8,0
			c0-7.1,0-14.1,0-21.2c-1,0-1.9,0-2.8,0c0,3.4,0,6.8,0,10.2c-2,1.1-4.6,1.7-6.8,0.6c-1.4-0.8-1.9-2.4-1.9-3.9c0-2.3,0-4.6,0-6.9
			C15.1,68.3,14.2,68.3,13.3,68.3z M32.1,68.3c0,7.1,0,14.1,0,21.2c4,0,8,0,11.9,0c0-0.8,0-1.5,0-2.3c-3,0-6.1,0-9.2,0
			c0-2.5,0-5,0-7.5c2.8,0,5.5,0,8.3,0c0-0.8,0-1.5,0-2.3c-2.8,0-5.5,0-8.3,0c0-2.3,0-4.6,0-6.9c2.9,0,5.8,0,8.7,0c0-0.8,0-1.5,0-2.3
			C39.7,68.3,35.9,68.3,32.1,68.3z M65.9,68.3c0,7.1,0,14.1,0,21.2c0.9,0,1.8,0,2.8,0c0-3.3,0-6.5,0-9.8c3.4,0,6.9,0,10.4,0
			c0,3.3,0,6.5,0,9.8c1,0,1.9,0,2.8,0c0-7.1,0-14.1,0-21.2c-1,0-1.9,0-2.8,0c0,3,0,6,0,9c-3.4,0-6.9,0-10.4,0c0-3,0-6,0-9
			C67.7,68.3,66.8,68.3,65.9,68.3z M107.8,68.3c0,7.1,0,14.1,0,21.2c0.9,0,1.8,0,2.8,0c0-3.2,0-6.5,0-9.7c1.9-0.1,4,0.2,5.2,1.8
			c1.8,2.3,2.1,5.4,3.4,7.9c1,0,2,0,3,0c-1.4-2.8-2-5.9-3.5-8.6c-1-1.7-2.8-2.7-4.7-2.9c2.7-3.2,5.3-6.5,8-9.7c-1.1,0-2.3,0-3.4,0
			c-2.4,3.2-4.8,6.3-7.2,9.5c-0.2,0-0.6,0-0.8,0c0-3.2,0-6.3,0-9.5C109.6,68.3,108.7,68.3,107.8,68.3z"/>
	</g>
	<path style="fill:#FB7009;" d="M93.5,70.3c2.4-0.5,5,0.6,6.4,2.6c2.3,3.5,2.3,8.4,0,11.9c-1.4,2.2-4.4,3.3-6.9,2.5
		c-1.9-0.5-3.4-2-4.2-3.7c-1.3-2.9-1.3-6.5,0-9.4C89.6,72.3,91.4,70.7,93.5,70.3z"/>
</g>
<g>
	<path style="fill:#FFFFFF;" d="M49.8,70.6c2.8-2.2,6.5-2.7,9.9-2.1c0.9,0.1,1.6,0.5,2.4,1c-0.2,0.7-0.5,1.3-0.7,2
		c-2.9-1.3-6.5-1.3-9.2,0.5c-2.1,1.4-3.1,4-3.3,6.4c-0.2,2.9,0.5,6.1,2.9,7.9c2.8,2,6.6,2,9.7,0.7c0.2,0.8,0.4,1.5,0.6,2.2
		c-2.6,1-5.4,1.2-8.2,0.7c-3.2-0.6-6.1-2.8-7.1-5.9C45,79.5,45.9,73.7,49.8,70.6z"/>
	<g>
		<path style="fill:#FFFFFF;" d="M92.2,68.5c2.9-0.6,6-0.1,8.3,1.8c2.4,2,3.5,5.1,3.6,8.1c0.1,3-0.5,6.2-2.5,8.5
			c-3.3,4-10,4.4-13.8,0.9c-2-1.9-3.1-4.7-3.2-7.4c-0.2-3,0.5-6.2,2.4-8.7C88.3,70.1,90.2,69,92.2,68.5z M93.1,70.6
			c-2.1,0.4-3.8,2-4.7,3.9c-1.3,3-1.3,6.5,0,9.4c0.8,1.7,2.3,3.2,4.2,3.7c2.5,0.8,5.4-0.3,6.9-2.5c2.3-3.5,2.3-8.4,0-11.9
			C98.2,71.2,95.5,70.1,93.1,70.6z"/>
	</g>
	<path style="fill:#FFFFFF;" d="M13,68.6c0.9,0,1.8,0,2.8,0c0,2.3,0,4.6,0,6.9c0,1.5,0.5,3.2,1.9,3.9c2.1,1.1,4.7,0.6,6.8-0.6
		c0-3.4,0-6.8,0-10.2c1,0,1.9,0,2.8,0c0,7.1,0,14.1,0,21.2c-1,0-1.9,0-2.8,0c0-2.9,0-5.8,0-8.8c-2.1,1.1-4.6,1.6-7,1.1
		c-1.1-0.2-2.2-0.8-2.9-1.6c-1.2-1.3-1.5-3.1-1.5-4.8C13,73.4,13,71,13,68.6z"/>
	<path style="fill:#FFFFFF;" d="M31.8,68.6c3.8,0,7.6,0,11.4,0c0,0.8,0,1.5,0,2.3c-2.9,0-5.8,0-8.7,0c0,2.3,0,4.6,0,6.9
		c2.8,0,5.5,0,8.3,0c0,0.8,0,1.5,0,2.3c-2.8,0-5.5,0-8.3,0c0,2.5,0,5,0,7.5c3,0,6.1,0,9.2,0c0,0.8,0,1.5,0,2.3c-4,0-8,0-11.9,0
		C31.8,82.7,31.8,75.7,31.8,68.6z"/>
	<path style="fill:#FFFFFF;" d="M65.5,68.6c0.9,0,1.8,0,2.8,0c0,3,0,6,0,9c3.4,0,6.9,0,10.4,0c0-3,0-6,0-9c1,0,1.9,0,2.8,0
		c0,7.1,0,14.1,0,21.2c-1,0-1.9,0-2.8,0c0-3.3,0-6.5,0-9.8c-3.4,0-6.9,0-10.4,0c0,3.3,0,6.5,0,9.8c-0.9,0-1.8,0-2.8,0
		C65.5,82.7,65.5,75.7,65.5,68.6z"/>
	<path style="fill:#FFFFFF;" d="M107.5,68.6c0.9,0,1.8,0,2.8,0c0,3.2,0,6.3,0,9.5c0.2,0,0.6,0,0.8,0c2.4-3.2,4.8-6.3,7.2-9.5
		c1.1,0,2.3,0,3.4,0c-2.7,3.3-5.3,6.5-8,9.7c1.9,0.3,3.7,1.2,4.7,2.9c1.6,2.7,2.1,5.8,3.5,8.6c-1,0-2,0-3,0
		c-1.4-2.5-1.6-5.6-3.4-7.9c-1.2-1.6-3.3-1.9-5.2-1.8c0,3.2,0,6.5,0,9.7c-0.9,0-1.8,0-2.8,0C107.5,82.7,107.5,75.7,107.5,68.6z"/>
</g>
</svg>
