<?xml version="1.0" encoding="utf-8"?>
<!-- Generator: Adobe Illustrator 19.1.0, SVG Export Plug-In . SVG Version: 6.00 Build 0)  -->
<svg version="1.1" id="Layer_1" xmlns="http://www.w3.org/2000/svg" xmlns:xlink="http://www.w3.org/1999/xlink" x="0px" y="0px"
	 width="412px" height="307px" viewBox="0 0 412 307" style="enable-background:new 0 0 412 307;" xml:space="preserve">
<style type="text/css">
	.st0{fill:#FB7009;}
	.st1{fill:#FFFFFF;}
</style>
<g>
	<path class="st0" d="M184.3,33.4c0.7-12.2,7.6-22.9,15-32.1c-1.8,5.6-4.3,11.2-4.2,17.2c0,8.1,2.3,16.8,8.6,22.3
		c5.8,5.1,12.8,8.7,19.7,12.2c15.4,7.8,31.4,14.7,45.4,24.8c8.5,6.2,16.4,13.9,20.1,23.9c3.7,9.9,2,21-2.4,30.4
		c-3,6.3-8.8,10.7-14.8,14.1c-11,5.9-23.3,9-35.6,11c-17.2,2.6-34.8,3.1-52.1,1.3c-13.2-1.4-26.4-4-38.5-9.6
		c-7.2-3.5-14.5-8.3-17.8-16c-2.5-6.3-3.7-13.5-1.5-20c1.8-5.6,6-10.1,10.8-13.4c8.1-5.9,17.6-9.4,25.8-15.2
		c3.6-2.6,6.9-6.2,7.5-10.7c0.5-3.3-0.6-6.6-1.7-9.7c3.7,3.3,7.7,6.9,9,11.8c1.2,4.1-0.2,8.4-2.5,11.9c-5.2,8-13.2,13.6-18.6,21.4
		c-4.2,6.1-3.8,14.1-1.6,20.8c3.2,8.7,11.6,14,20,16.9c15.6,5.3,32.5,5.3,48.6,2.5c10.9-2.1,22-5.4,30.6-12.8
		c7-6.2,10.5-16.8,7.1-25.8c-3.6-9.4-11.7-16-19.8-21.3c-15.1-9.5-31.6-17.1-44.7-29.3C189.4,53.1,183.7,43.7,184.3,33.4z"/>
	<g>
		<path class="st0" d="M0,186.4c0.6-5.3,5.6-9.4,10.9-8.9c127.7,0,255.4,0,383.1,0c3.5,0.1,7-0.3,10.5,0.4c4,0.9,6.8,4.5,7.5,8.4
			v112.3c-0.6,4.6-4.2,8.2-8.8,9H9c-4.8-0.6-8.7-4.6-9-9.5V186.4z M153,216.6c-11.9,9.6-14.5,27.3-9.4,41.1
			c3.3,9.4,12.1,16.3,21.8,18.1c8.3,1.4,17.1,0.9,24.9-2.2c-0.6-2.3-1.2-4.5-1.8-6.8c-9.4,3.9-21.1,4.1-29.5-2.2
			c-7.3-5.6-9.6-15.5-8.9-24.2c0.6-7.5,3.7-15.3,10.2-19.5c8.2-5.4,19.2-5.5,28-1.4c0.7-2,1.4-4,2.1-6c-2.2-1.5-4.6-2.7-7.2-3.1
			C172.9,208.3,161.4,209.9,153,216.6z M282.5,210.2c-6.2,1.4-12,4.8-15.9,9.9c-5.9,7.4-7.9,17.2-7.4,26.5
			c0.5,8.4,3.6,16.9,9.8,22.8c11.6,10.6,31.9,9.4,42-2.8c6-7.2,8-16.9,7.7-26.1c-0.3-9.2-3.7-18.8-11-24.7
			C300.9,209.9,291.2,208.4,282.5,210.2z M40.6,210.5c0,7.3,0,14.7,0,22c0.2,5.1,1.1,10.7,4.7,14.6c2.3,2.6,5.5,4.1,8.8,4.9
			c7.2,1.4,14.8,0,21.3-3.4c-0.2,9,0,17.9-0.1,26.9c2.9,0,5.8,0.1,8.6,0c0-21.7,0-43.3,0-65c-2.9,0-5.7,0-8.6,0
			c0,10.4,0,20.9,0,31.3c-6.1,3.5-14,5.2-20.6,1.8c-4.3-2.3-5.8-7.5-5.9-12c-0.1-7,0-14.1,0-21.1C46.2,210.5,43.4,210.5,40.6,210.5z
			 M98,210.5c0,21.7,0,43.3,0,65c12.1,0,24.3,0,36.4,0c0-2.3,0-4.7,0-7c-9.3,0-18.7,0-28,0c0-7.6,0-15.3,0-22.9
			c8.4-0.1,16.8,0,25.2,0c0-2.3,0-4.7,0-7c-8.4,0-16.8,0-25.2,0c0-7,0-14,0-21c8.8,0,17.6,0,26.4,0c0-2.3,0-4.7,0-7
			C121.2,210.5,109.6,210.5,98,210.5z M201,210.5c0,21.7,0,43.3,0,65c2.8,0,5.6,0,8.4,0c0-10,0-20,0-30c10.5,0,21.1,0,31.6,0
			c0,10,0,20,0,30c2.9,0,5.7,0,8.6,0c0-21.6,0-43.3,0-64.9c-2.9,0-5.7,0-8.6,0c0,9.2,0,18.4,0,27.6c-10.5,0-21.1,0-31.6,0
			c0-9.2,0-18.4,0-27.6C206.6,210.5,203.8,210.5,201,210.5z M329,210.5c0,21.7,0,43.3,0,65c2.8,0,5.6,0,8.4,0c0-9.9,0-19.8,0-29.6
			c5.7-0.2,12.2,0.6,15.9,5.4c5.4,7.1,6.3,16.4,10.5,24.2c3.1,0,6.1,0,9.2,0c-4.3-8.5-6-18-10.8-26.2c-2.9-5.2-8.6-8.2-14.4-9
			c8.2-9.9,16.3-19.9,24.4-29.8c-3.4,0-6.9,0-10.3,0c-7.3,9.7-14.8,19.3-22.1,29c-0.6,0-1.8,0-2.4,0c0-9.7,0-19.3,0-29
			C334.6,210.5,331.8,210.5,329,210.5z"/>
	</g>
	<path class="st0" d="M285.3,216.7c7.3-1.6,15.3,1.8,19.5,8c7,10.8,7,25.8,0,36.6c-4.3,6.8-13.3,10.1-21,7.7
		c-5.8-1.5-10.3-6.1-12.7-11.4c-4.1-9-4-19.8,0-28.9C273.5,222.7,278.8,217.8,285.3,216.7z"/>
</g>
<g>
	<path class="st1" d="M153,216.6c8.4-6.7,19.9-8.3,30.2-6.4c2.6,0.4,5,1.6,7.2,3.1c-0.7,2-1.4,4-2.1,6c-8.8-4.1-19.8-4-28,1.4
		c-6.5,4.2-9.6,12.1-10.2,19.5c-0.7,8.8,1.6,18.6,8.9,24.2c8.4,6.2,20.1,6,29.5,2.2c0.6,2.3,1.2,4.6,1.8,6.8
		c-7.9,3.1-16.6,3.6-24.9,2.2c-9.7-1.7-18.5-8.7-21.8-18.1C138.5,243.9,141.1,226.2,153,216.6z"/>
	<g>
		<path class="st1" d="M282.5,210.2c8.7-1.8,18.4-0.3,25.3,5.5c7.3,6,10.6,15.6,11,24.7c0.4,9.2-1.6,18.9-7.7,26.1
			c-10.1,12.2-30.4,13.4-42,2.8c-6.2-5.9-9.4-14.4-9.8-22.8c-0.6-9.3,1.4-19.1,7.4-26.5C270.5,215,276.3,211.6,282.5,210.2z
			 M285.3,216.7c-6.5,1.2-11.7,6-14.2,12c-4,9.1-4.1,19.8,0,28.9c2.4,5.3,7,9.9,12.7,11.4c7.7,2.3,16.6-1,21-7.7
			c7-10.8,7-25.8,0-36.6C300.6,218.4,292.6,215.1,285.3,216.7z"/>
	</g>
	<path class="st1" d="M40.6,210.5c2.8,0,5.6,0,8.4,0c0,7,0,14.1,0,21.1c0,4.6,1.6,9.7,5.9,12c6.5,3.4,14.4,1.7,20.6-1.8
		c-0.1-10.4,0-20.9,0-31.3c2.9,0,5.7,0,8.6,0c0,21.7,0,43.3,0,65c-2.9,0-5.8,0-8.6,0c0.1-9-0.1-17.9,0.1-26.9
		c-6.5,3.4-14.1,4.8-21.3,3.4c-3.3-0.7-6.6-2.3-8.8-4.9c-3.7-3.9-4.6-9.4-4.7-14.6C40.6,225.2,40.6,217.9,40.6,210.5z"/>
	<path class="st1" d="M98,210.5c11.6,0,23.2,0,34.8,0c0,2.3,0,4.7,0,7c-8.8,0-17.6,0-26.4,0c0,7,0,14,0,21c8.4,0,16.8,0,25.2,0
		c0,2.3,0,4.7,0,7c-8.4,0-16.8-0.1-25.2,0c0.1,7.7,0,15.3,0,22.9c9.3,0,18.7,0,28,0c0,2.3,0,4.7,0,7c-12.1,0-24.3,0-36.4,0
		C98,253.8,98,232.2,98,210.5z"/>
	<path class="st1" d="M201,210.5c2.8,0,5.6,0,8.4,0c0,9.2,0,18.4,0,27.6c10.5,0,21.1,0,31.6,0c0-9.2,0-18.4,0-27.6
		c2.9,0,5.7,0,8.6,0c-0.1,21.7,0,43.3,0,64.9c-2.9,0-5.7,0-8.6,0c0-10,0-20,0-30c-10.5,0-21.1,0-31.6,0c0,10,0,20,0,30
		c-2.8,0-5.6,0-8.4,0C201,253.8,201,232.2,201,210.5z"/>
	<path class="st1" d="M329,210.5c2.8,0,5.6,0,8.4,0c0,9.7,0,19.3,0,29c0.6,0,1.8,0,2.4,0c7.3-9.7,14.8-19.3,22.1-29
		c3.4,0,6.9,0,10.3,0c-8.1,10-16.2,19.9-24.4,29.8c5.8,0.8,11.4,3.8,14.4,9c4.9,8.2,6.5,17.7,10.8,26.2c-3.1,0-6.1,0-9.2,0
		c-4.2-7.8-5-17.1-10.5-24.2c-3.7-4.9-10.2-5.7-15.9-5.4c0,9.9,0,19.8,0,29.6c-2.8,0-5.6,0-8.4,0C329,253.8,329,232.2,329,210.5z"/>
</g>
</svg>
