<?xml version="1.0" encoding="iso-8859-1"?>
<!-- Generator: Adobe Illustrator 19.1.0, SVG Export Plug-In . SVG Version: 6.00 Build 0)  -->
<svg version="1.1" id="&#x421;&#x43B;&#x43E;&#x439;_1"
	 xmlns="http://www.w3.org/2000/svg" xmlns:xlink="http://www.w3.org/1999/xlink" x="0px" y="0px" width="201px" height="150px"
	 viewBox="0 0 201 150" style="enable-background:new 0 0 201 150;" xml:space="preserve">
<g>
	<path style="fill:#FB7009;" d="M89.9,15.7c0.3-6,3.7-11.2,7.3-15.7c-0.9,2.7-2.1,5.5-2,8.4c0,4,1.1,8.2,4.2,10.9
		c2.8,2.5,6.2,4.3,9.6,6c7.5,3.8,15.3,7.2,22.1,12.1c4.1,3,8,6.8,9.8,11.7c1.8,4.8,1,10.3-1.2,14.9c-1.5,3.1-4.3,5.2-7.2,6.9
		c-5.4,2.9-11.4,4.4-17.4,5.4c-8.4,1.3-17,1.5-25.4,0.6c-6.4-0.7-12.9-2-18.8-4.7c-3.5-1.7-7.1-4.1-8.7-7.8
		c-1.2-3.1-1.8-6.6-0.7-9.8c0.9-2.7,2.9-4.9,5.3-6.6c4-2.9,8.6-4.6,12.6-7.4c1.8-1.3,3.4-3,3.7-5.2c0.2-1.6-0.3-3.2-0.8-4.8
		c1.8,1.6,3.8,3.4,4.4,5.8c0.6,2-0.1,4.1-1.2,5.8c-2.5,3.9-6.4,6.7-9.1,10.5c-2,3-1.9,6.9-0.8,10.2c1.6,4.3,5.7,6.9,9.8,8.3
		c7.6,2.6,15.9,2.6,23.7,1.2c5.3-1,10.7-2.6,14.9-6.3c3.4-3,5.1-8.2,3.5-12.6c-1.8-4.6-5.7-7.8-9.7-10.4
		c-7.4-4.7-15.4-8.4-21.8-14.3C92.4,25.4,89.6,20.8,89.9,15.7z"/>
	<g>
		<path style="fill:#FB7009;" d="M0,90.6c0.3-2.6,2.7-4.6,5.3-4.4c62.3,0,124.6,0,186.9,0c1.7,0,3.4-0.1,5.1,0.2
			c2,0.4,3.3,2.2,3.7,4.1v55c-0.3,2.3-2,4-4.3,4.4H4.4c-2.3-0.3-4.2-2.3-4.4-4.7V90.6z M74.6,105.4c-5.8,4.7-7.1,13.4-4.6,20.1
			c1.6,4.6,5.9,8,10.6,8.9c4,0.7,8.3,0.4,12.1-1.1c-0.3-1.1-0.6-2.2-0.9-3.3c-4.6,1.9-10.3,2-14.4-1.1c-3.6-2.7-4.7-7.6-4.3-11.9
			c0.3-3.7,1.8-7.5,5-9.5c4-2.6,9.4-2.7,13.7-0.7c0.3-1,0.7-2,1-2.9c-1.1-0.7-2.2-1.3-3.5-1.5C84.4,101.4,78.7,102.2,74.6,105.4z
			 M137.8,102.3c-3,0.7-5.9,2.4-7.8,4.8c-2.9,3.6-3.9,8.4-3.6,13c0.2,4.1,1.8,8.3,4.8,11.2c5.7,5.2,15.6,4.6,20.5-1.4
			c2.9-3.5,3.9-8.3,3.8-12.8c-0.1-4.5-1.8-9.2-5.4-12.1C146.8,102.2,142.1,101.4,137.8,102.3z M19.8,102.4c0,3.6,0,7.2,0,10.8
			c0.1,2.5,0.5,5.2,2.3,7.1c1.1,1.3,2.7,2,4.3,2.4c3.5,0.7,7.2,0,10.4-1.7c-0.1,4.4,0,8.8,0,13.2c1.4,0,2.8,0,4.2,0
			c0-10.6,0-21.2,0-31.8c-1.4,0-2.8,0-4.2,0c0,5.1,0,10.2,0,15.3c-3,1.7-6.8,2.5-10.1,0.9c-2.1-1.1-2.8-3.7-2.9-5.9
			c0-3.4,0-6.9,0-10.3C22.5,102.4,21.2,102.4,19.8,102.4z M47.8,102.4c0,10.6,0,21.2,0,31.8c5.9,0,11.9,0,17.8,0c0-1.1,0-2.3,0-3.4
			c-4.5,0-9.1,0-13.7,0c0-3.7,0-7.5,0-11.2c4.1,0,8.2,0,12.3,0c0-1.1,0-2.3,0-3.4c-4.1,0-8.2,0-12.3,0c0-3.4,0-6.9,0-10.3
			c4.3,0,8.6,0,12.9,0c0-1.1,0-2.3,0-3.4C59.1,102.4,53.5,102.4,47.8,102.4z M98.1,102.4c0,10.6,0,21.2,0,31.8c1.4,0,2.7,0,4.1,0
			c0-4.9,0-9.8,0-14.7c5.1,0,10.3,0,15.4,0c0,4.9,0,9.8,0,14.7c1.4,0,2.8,0,4.2,0c0-10.6,0-21.2,0-31.8c-1.4,0-2.8,0-4.2,0
			c0,4.5,0,9,0,13.5c-5.1,0-10.3,0-15.4,0c0-4.5,0-9,0-13.5C100.8,102.4,99.4,102.4,98.1,102.4z M160.5,102.4c0,10.6,0,21.2,0,31.8
			c1.4,0,2.7,0,4.1,0c0-4.8,0-9.7,0-14.5c2.8-0.1,6,0.3,7.8,2.6c2.6,3.5,3.1,8,5.1,11.9c1.5,0,3,0,4.5,0c-2.1-4.2-2.9-8.8-5.3-12.8
			c-1.4-2.5-4.2-4-7-4.4c4-4.8,8-9.7,11.9-14.6c-1.7,0-3.4,0-5,0c-3.6,4.8-7.2,9.5-10.8,14.2c-0.3,0-0.9,0-1.2,0c0-4.8,0-9.5,0-14.2
			C163.2,102.4,161.9,102.4,160.5,102.4z"/>
	</g>
	<path style="fill:#FB7009;" d="M139.2,105.5c3.6-0.8,7.5,0.9,9.5,3.9c3.4,5.3,3.4,12.6,0,17.9c-2.1,3.3-6.5,4.9-10.2,3.8
		c-2.8-0.7-5-3-6.2-5.6c-2-4.4-2-9.7,0-14.2C133.4,108.4,136,106,139.2,105.5z"/>
</g>
<g>
	<path style="fill:#FFFFFF;" d="M74.1,105.9c4.1-3.3,9.7-4.1,14.7-3.1c1.3,0.2,2.4,0.8,3.5,1.5c-0.3,1-0.7,2-1,2.9
		c-4.3-2-9.7-2-13.7,0.7c-3.2,2.1-4.7,5.9-5,9.5c-0.3,4.3,0.8,9.1,4.3,11.9c4.1,3,9.8,2.9,14.4,1.1c0.3,1.1,0.6,2.3,0.9,3.3
		c-3.9,1.5-8.1,1.8-12.1,1.1c-4.7-0.8-9-4.3-10.6-8.9C67.1,119.3,68.3,110.6,74.1,105.9z"/>
	<g>
		<path style="fill:#FFFFFF;" d="M137.3,102.8c4.2-0.9,9-0.1,12.3,2.7c3.6,2.9,5.2,7.6,5.4,12.1c0.2,4.5-0.8,9.3-3.8,12.8
			c-4.9,6-14.8,6.6-20.5,1.4c-3-2.9-4.6-7.1-4.8-11.2c-0.3-4.6,0.7-9.4,3.6-13C131.5,105.1,134.3,103.4,137.3,102.8z M138.7,105.9
			c-3.2,0.6-5.7,2.9-6.9,5.9c-2,4.5-2,9.7,0,14.2c1.2,2.6,3.4,4.8,6.2,5.6c3.8,1.1,8.1-0.5,10.2-3.8c3.4-5.3,3.4-12.6,0-17.9
			C146.2,106.8,142.2,105.2,138.7,105.9z"/>
	</g>
	<path style="fill:#FFFFFF;" d="M19.3,102.9c1.4,0,2.7,0,4.1,0c0,3.4,0,6.9,0,10.3c0,2.3,0.8,4.8,2.9,5.9c3.2,1.7,7,0.8,10-0.9
		c0-5.1,0-10.2,0-15.3c1.4,0,2.8,0,4.2,0c0,10.6,0,21.2,0,31.8c-1.4,0-2.8,0-4.2,0c0-4.4,0-8.8,0-13.2c-3.2,1.7-6.9,2.4-10.4,1.7
		c-1.6-0.3-3.2-1.1-4.3-2.4c-1.8-1.9-2.2-4.6-2.3-7.1C19.3,110.1,19.3,106.5,19.3,102.9z"/>
	<path style="fill:#FFFFFF;" d="M47.3,102.9c5.7,0,11.3,0,17,0c0,1.1,0,2.3,0,3.4c-4.3,0-8.6,0-12.9,0c0,3.4,0,6.9,0,10.3
		c4.1,0,8.2,0,12.3,0c0,1.1,0,2.3,0,3.4c-4.1,0-8.2,0-12.3,0c0,3.8,0,7.5,0,11.2c4.5,0,9.1,0,13.7,0c0,1.1,0,2.3,0,3.4
		c-5.9,0-11.9,0-17.8,0C47.3,124.1,47.3,113.5,47.3,102.9z"/>
	<path style="fill:#FFFFFF;" d="M97.6,102.9c1.4,0,2.7,0,4.1,0c0,4.5,0,9,0,13.5c5.1,0,10.3,0,15.4,0c0-4.5,0-9,0-13.5
		c1.4,0,2.8,0,4.2,0c0,10.6,0,21.2,0,31.8c-1.4,0-2.8,0-4.2,0c0-4.9,0-9.8,0-14.7c-5.1,0-10.3,0-15.4,0c0,4.9,0,9.8,0,14.7
		c-1.4,0-2.7,0-4.1,0C97.6,124.1,97.6,113.5,97.6,102.9z"/>
	<path style="fill:#FFFFFF;" d="M160,102.9c1.4,0,2.7,0,4.1,0c0,4.8,0,9.5,0,14.2c0.3,0,0.9,0,1.2,0c3.6-4.8,7.2-9.5,10.8-14.2
		c1.7,0,3.4,0,5,0c-4,4.9-7.9,9.7-11.9,14.6c2.8,0.4,5.6,1.9,7,4.4c2.4,4,3.2,8.7,5.3,12.8c-1.5,0-3,0-4.5,0
		c-2-3.8-2.4-8.4-5.1-11.9c-1.8-2.4-5-2.8-7.8-2.6c0,4.8,0,9.7,0,14.5c-1.4,0-2.7,0-4.1,0C160,124.1,160,113.5,160,102.9z"/>
</g>
</svg>
